<?xml version="1.0" encoding="utf-8"?>
<COLLADA xmlns="http://www.collada.org/2005/11/COLLADASchema" version="1.4.1" xmlns:xsi="http://www.w3.org/2001/XMLSchema-instance">
  <asset>
    <contributor>
      <author>Blender User</author>
      <authoring_tool>Blender 4.5.0 commit date:2025-07-14, commit time:17:45, hash:8cb6b388974a</authoring_tool>
    </contributor>
    <created>2025-07-22T18:44:59</created>
    <modified>2025-07-22T18:44:59</modified>
    <unit name="meter" meter="1"/>
    <up_axis>Z_UP</up_axis>
  </asset>
  <library_cameras>
    <camera id="Camera-camera" name="Camera">
      <optics>
        <technique_common>
          <perspective>
            <xfov sid="xfov">39.59775</xfov>
            <aspect_ratio>1.777778</aspect_ratio>
            <znear sid="znear">0.1</znear>
            <zfar sid="zfar">100</zfar>
          </perspective>
        </technique_common>
      </optics>
      <extra>
        <technique profile="blender">
          <shiftx sid="shiftx" type="float">0</shiftx>
          <shifty sid="shifty" type="float">0</shifty>
          <dof_distance sid="dof_distance" type="float">10</dof_distance>
        </technique>
      </extra>
    </camera>
  </library_cameras>
  <library_lights>
    <light id="Light-light" name="Light">
      <technique_common>
        <point>
          <color sid="color">1000 1000 1000</color>
          <constant_attenuation>1</constant_attenuation>
          <linear_attenuation>0</linear_attenuation>
          <quadratic_attenuation>0</quadratic_attenuation>
        </point>
      </technique_common>
      <extra>
        <technique profile="blender">
          <type sid="type" type="int">0</type>
          <flag sid="flag" type="int">0</flag>
          <mode sid="mode" type="int">2097153</mode>
          <red sid="red" type="float">1</red>
          <green sid="green" type="float">1</green>
          <blue sid="blue" type="float">1</blue>
          <energy sid="blender_energy" type="float">1000</energy>
          <spotsize sid="spotsize" type="float">75</spotsize>
          <spotblend sid="spotblend" type="float">0.15</spotblend>
          <clipsta sid="clipsta" type="float">0.04999995</clipsta>
          <clipend sid="clipend" type="float">40</clipend>
          <radius sid="radius" type="float">0.1</radius>
          <area_shape sid="area_shape" type="int">1</area_shape>
          <area_size sid="area_size" type="float">0.1</area_size>
          <area_sizey sid="area_sizey" type="float">0.1</area_sizey>
          <area_sizez sid="area_sizez" type="float">1</area_sizez>
        </technique>
      </extra>
    </light>
  </library_lights>
  <library_effects>
    <effect id="材质_002-effect">
      <profile_COMMON>
        <newparam sid="well_png-surface">
          <surface type="2D">
            <init_from>well_png</init_from>
          </surface>
        </newparam>
        <newparam sid="well_png-sampler">
          <sampler2D>
            <source>well_png-surface</source>
          </sampler2D>
        </newparam>
        <technique sid="common">
          <lambert>
            <emission>
              <color sid="emission">0 0 0 1</color>
            </emission>
            <diffuse>
              <texture texture="well_png-sampler" texcoord="UV贴图"/>
            </diffuse>
            <index_of_refraction>
              <float sid="ior">1.5</float>
            </index_of_refraction>
          </lambert>
        </technique>
      </profile_COMMON>
    </effect>
  </library_effects>
  <library_images>
    <image id="well_png" name="well_png">
      <init_from>well.png</init_from>
    </image>
  </library_images>
  <library_materials>
    <material id="材质_002-material" name="材质.002">
      <instance_effect url="#材质_002-effect"/>
    </material>
  </library_materials>
  <library_geometries>
    <geometry id="场地格挡-mesh" name="场地格挡">
      <mesh>
        <source id="场地格挡-mesh-positions">
          <float_array id="场地格挡-mesh-positions-array" count="240">1.0375 0.5 1.53 1.0375 0.5 2.03 1.0375 0 1.53 1.0375 0 2.03 2 0.5 1.53 2 0 1.53 2 0.5 2 2 0 2 1.765 0.5 2 1.765 0 2 1.765 0.5 2.03 1.765 0 2.03 2.03 0.5 2.03 2.03 0 2.03 2.03 0.5 1.5 2.03 0 1.5 0.02999997 0.5 1.5 0.02999997 0 1.5 0.02999997 0.5 0.0300002 0.02999997 0 0.0300002 1.0075 0.5 0.0300002 1.0075 0 0.0300002 1.0075 0.5 0.5150002 1.0075 0 0.5150002 0.7725 0.5 0.5150002 0.7725 0 0.5150002 0.7725 0.5 0.5450001 0.7725 0 0.5450001 1.0375 0.5 0.5450001 1.0375 0 0.5450001 1.0375 0.5 0.0300002 1.0375 0 0.0300002 2 0.5 0.0300002 2 0 0.0300002 2 0.5 0.5150002 2 0 0.5150002 1.765 0.5 0.5150002 1.765 0 0.5150002 1.765 0.5 0.5450001 1.765 0 0.5450001 2.03 0.5 0.5450001 2.03 0 0.5450001 2.03 0.5 0.0300002 2.03 0 0.0300002 3 0.5 0.0300002 3 0 0.0300002 3 0.5 0.5150002 3 0 0.5150002 2.75 0.5 0.5150002 2.75 0 0.5150002 2.75 0.5 0.5450001 2.75 0 0.5450001 3 0.5 0.5450001 3 0 0.5450001 3 0.5 3 3 0 3 3.03 0.5 3 3.03 0 3 3.03 0.5 0 3.03 0 0 0 0.5 0 0 0 0 0 0.5 3.03 0 0 3.03 2.015 0.5 3.03 2.015 0 3.03 2.015 0.5 3 2.015 0 3 0.02999997 0.5 3 0.02999997 0 3 0.02999997 0.5 1.53 0.02999997 0 1.53 1.0075 0.5 1.53 1.0075 0 1.53 1.0075 0.5 2 1.0075 0 2 0.7725 0.5 2 0.7725 0 2 0.7725 0.5 2.03 0.7725 0 2.03</float_array>
          <technique_common>
            <accessor source="#场地格挡-mesh-positions-array" count="80" stride="3">
              <param name="X" type="float"/>
              <param name="Y" type="float"/>
              <param name="Z" type="float"/>
            </accessor>
          </technique_common>
        </source>
        <source id="场地格挡-mesh-normals">
          <float_array id="场地格挡-mesh-normals-array" count="468">1 0 0 1 0 0 0 0 1 0 0 1 -1 0 0 -1 0 0 0 0 -1 0 0 -1 -1 0 0 -1 0 0 0 0 1 0 0 1 1 0 0 1 0 0 0 0 -1 0 0 -1 1 0 0 1 0 0 0 0 1 0 0 1 -1 0 0 -1 0 0 0 0 -1 0 0 -1 -1 0 0 -1 0 0 0 0 1 0 0 1 1 0 0 1 0 0 0 0 1 0 0 1 -1 0 0 -1 0 0 0 0 -1 0 0 -1 -1 0 0 -1 0 0 0 0 1 0 0 1 1 0 0 1 0 0 0 0 1 0 0 1 -1 0 0 -1 0 0 0 0 -1 0 0 -1 -1 0 0 -1 0 0 0 0 1 0 0 1 -1 0 0 -1 0 0 0 0 1 0 0 1 1 0 0 1 0 0 0 0 -1 0 0 -1 -1 0 0 -1 0 0 0 0 1 0 0 1 1 0 0 1 0 0 0 0 -1 0 0 -1 1 0 0 1 0 0 0 0 1 0 0 1 -1 0 0 -1 0 0 0 0 -1 0 0 -1 -1 0 0 -1 0 0 0 0 1 0 0 1 0 1 0 0 1 0 0 1 0 0 1 0 0 1 0 0 1 0 0 1 0 0 1 0 0 1 0 0 1 0 0 1 0 0 1 0 0 1 0 0 1 0 0 1 0 0 1 0 0 1 0 0 1 0 0 1 0 0 1 0 0 1 0 0 1 0 0 1 0 0 1 0 0 1 0 0 1 0 0 1 0 0 1 0 0 1 0 0 1 0 0 1 0 0 1 0 0 1 0 0 1 0 0 1 0 0 1 0 0 1 0 0 1 0 0 -1 0 0 -1 0 0 -1 0 0 -1 0 0 -1 0 0 -1 0 0 -1 0 0 -1 0 0 -1 0 0 -1 0 0 -1 0 0 -1 0 0 -1 0 0 -1 0 0 -1 0 0 -1 0 0 -1 0 0 -1 0 0 -1 0 0 -1 0 0 -1 0 0 -1 0 0 -1 0 0 -1 0 0 -1 0 0 -1 0 0 -1 0 0 -1 0 0 -1 0 0 -1 0 0 -1 0 0 -1 0 0 -1 0 0 -1 0 0 -1 0 0 -1 0 0 -1 0 0 -1 0</float_array>
          <technique_common>
            <accessor source="#场地格挡-mesh-normals-array" count="156" stride="3">
              <param name="X" type="float"/>
              <param name="Y" type="float"/>
              <param name="Z" type="float"/>
            </accessor>
          </technique_common>
        </source>
        <source id="场地格挡-mesh-map-0">
          <float_array id="场地格挡-mesh-map-0-array" count="936">0.7667683 0.9043443 0.6905488 0.9043443 0.7667683 0.8281248 0.7667683 0.8281248 0.6905488 0.9043443 0.6905488 0.8281248 0.7667683 0.296875 0.7667683 0.4435975 0.6905488 0.296875 0.6905488 0.296875 0.7667683 0.4435975 0.6905488 0.4435975 0.7667683 0.152439 0.8384146 0.152439 0.7667683 0.2286585 0.7667683 0.2286585 0.8384146 0.152439 0.8384146 0.2286585 0.8025915 0.9908535 0.7667683 0.9908535 0.8025915 0.914634 0.8025915 0.914634 0.7667683 0.9908535 0.7667683 0.914634 0.8407012 0.07621949 0.8452744 0.07621949 0.8407012 0.152439 0.8407012 0.152439 0.8452744 0.07621949 0.8452743 0.152439 0.8071647 0.3810975 0.7667683 0.3810975 0.8071647 0.304878 0.8071647 0.304878 0.7667683 0.3810975 0.7667683 0.304878 0.6905488 0.6711127 0.6905488 0.59032 0.7667683 0.6711127 0.7667683 0.6711127 0.6905488 0.59032 0.7667683 0.59032 0.6143292 0.6814023 0.6143292 0.9862803 0.5381097 0.6814023 0.5381097 0.6814023 0.6143292 0.9862803 0.5381097 0.9862803 0.6143293 0.5266768 0.6143293 0.3025915 0.6905488 0.5266768 0.6905488 0.5266768 0.6143293 0.3025915 0.6905488 0.3025915 0.6905488 0.7507621 0.6905488 0.8997712 0.6143293 0.7507621 0.6143293 0.7507621 0.6905488 0.8997712 0.6143293 0.8997712 0.6905487 0.9043443 0.7644816 0.9043443 0.6905487 0.9805638 0.6905487 0.9805638 0.7644816 0.9043443 0.7644816 0.9805638 0.8025914 0.8384145 0.7667682 0.8384145 0.8025914 0.762195 0.8025914 0.762195 0.7667682 0.8384145 0.7667682 0.762195 0.8407012 0.1524389 0.8452743 0.1524389 0.8407012 0.2286584 0.8407012 0.2286584 0.8452743 0.1524389 0.8452743 0.2286584 0.8071646 0.5335366 0.7667683 0.5335366 0.8071646 0.457317 0.8071646 0.457317 0.7667683 0.5335366 0.7667683 0.457317 0.6905488 0.7496188 0.6905488 0.6711127 0.7667683 0.7496188 0.7667683 0.7496188 0.6905488 0.6711127 0.7667683 0.6711127 0.7667683 0.4435974 0.7667683 0.59032 0.6905488 0.4435974 0.6905488 0.4435974 0.7667683 0.59032 0.6905488 0.59032 0.7667682 0 0.8407011 0 0.7667682 0.07621949 0.7667682 0.07621949 0.8407011 0 0.8407011 0.07621949 0.8765243 0.07621949 0.8407012 0.07621949 0.8765243 0 0.8765243 0 0.8407012 0.07621949 0.8407012 0 0.8407012 0.2286584 0.8452743 0.2286584 0.8407012 0.304878 0.8407012 0.304878 0.8452743 0.2286584 0.8452743 0.304878 0.8071647 0.457317 0.7667683 0.457317 0.8071647 0.3810975 0.8071647 0.3810975 0.7667683 0.457317 0.7667683 0.3810975 0.6905488 0.828125 0.6905488 0.7496188 0.7667683 0.828125 0.7667683 0.828125 0.6905488 0.7496188 0.7667683 0.7496188 0.7667683 0.1490091 0.7667683 0.296875 0.6905488 0.1490091 0.6905488 0.1490091 0.7667683 0.296875 0.6905488 0.296875 0.7667682 0.07621949 0.8407011 0.07621949 0.7667682 0.152439 0.7667682 0.152439 0.8407011 0.07621949 0.8407011 0.152439 0.804878 0.6859755 0.7667682 0.6859755 0.804878 0.609756 0.804878 0.609756 0.7667682 0.6859755 0.7667682 0.609756 0.8407012 0.304878 0.8452743 0.304878 0.8407012 0.3810975 0.8407012 0.3810975 0.8452743 0.304878 0.8452743 0.3810975 0.804878 0.762195 0.7667683 0.762195 0.804878 0.6859755 0.804878 0.6859755 0.7667683 0.762195 0.7667683 0.6859755 0.6143292 0 0.6143292 0.3742378 0.5381097 0 0.5381097 0 0.6143292 0.3742378 0.5381097 0.3742378 0.8452743 0.457317 0.8407012 0.457317 0.8452743 0.3810975 0.8452743 0.3810975 0.8407012 0.457317 0.8407012 0.3810975 0.4618902 0.9954268 0.4618902 0.5381097 0.5381097 0.9954268 0.5381097 0.9954268 0.4618902 0.5381097 0.5381097 0.5381097 0.5381097 0.07621949 0.5381097 0.5381097 0.4618902 0.07621949 0.4618902 0.07621949 0.5381097 0.5381097 0.4618902 0.5381097 0 0 0.4618902 0 0 0.07621949 0 0.07621949 0.4618902 0 0.4618902 0.07621949 0.6143292 0.3742377 0.6143292 0.6814023 0.5381097 0.3742377 0.5381097 0.3742377 0.6143292 0.6814023 0.5381097 0.6814023 0.8452743 0.5335365 0.8407012 0.5335365 0.8452743 0.457317 0.8452743 0.457317 0.8407012 0.5335365 0.8407012 0.457317 0.6905488 0 0.6905487 0.3025915 0.6143293 0 0.6143293 0 0.6905487 0.3025915 0.6143292 0.3025915 0.6143293 0.7507621 0.6143293 0.5266768 0.6905488 0.7507621 0.6905488 0.7507621 0.6143293 0.5266768 0.6905488 0.5266768 0.7667683 0 0.7667683 0.1490091 0.6905488 0 0.6905488 0 0.7667683 0.1490091 0.6905488 0.1490091 0.7667683 0.2286585 0.8384146 0.2286585 0.7667683 0.3048781 0.7667683 0.3048781 0.8384146 0.2286585 0.8384146 0.3048781 0.8025914 0.914634 0.7667682 0.914634 0.8025914 0.8384145 0.8025914 0.8384145 0.7667682 0.914634 0.7667682 0.8384145 0.8407012 0.5335365 0.8452744 0.5335365 0.8407012 0.609756 0.8407012 0.609756 0.8452744 0.5335365 0.8452744 0.609756 0.8071646 0.6097561 0.7667683 0.6097561 0.8071646 0.5335366 0.8071646 0.5335366 0.7667683 0.6097561 0.7667683 0.5335366 0 1 0 0.6928354 0.004573166 0.6928354 0.3833841 0.542683 0.3833841 0.5807927 0.378811 0.5807927 0.004573166 0.542683 0.004573166 0.5381098 0.378811 0.542683 0.378811 0.542683 0.004573166 0.5381098 0.4618902 0.5381098 0.004573166 0.6928354 0.004573106 0.9954268 0 1 0 1 0.004573106 0.9954268 0.2286584 0.9954268 0 1 0.2286584 0.9954268 0.4618902 1 0.4618902 1 0.2286584 0.9954268 0.2332316 0.9954268 0.2332316 0.9954268 0.457317 0.9954268 0.4618902 1 0.4618902 1 0.457317 0.9954268 0.457317 0.8464177 0.4618902 1 0.457317 0.8464177 0.4618902 0.5381098 0.1570121 0.8822408 0.1524389 0.8822408 0.1570122 0.8464177 0.1570122 0.8464177 0.1524389 0.8822408 0.152439 0.8418445 0.1570122 0.8464177 0.152439 0.8418445 0.2286585 0.8464177 0.2286585 0.8464177 0.152439 0.8418445 0.2286585 0.8418445 0.1570122 0.7309451 0.152439 0.7309451 0.1570122 0.695122 0.1570122 0.695122 0.152439 0.7309451 0.152439 0.6905488 0.1570122 0.695122 0.152439 0.6905488 0.2286585 0.695122 0.2286585 0.695122 0.152439 0.6905488 0.2332317 0.6905488 0.2286585 0.695122 0.2332317 0.6905488 0.2286585 0.8418445 0.2286585 0.8418445 0.2332317 0.6905488 0.2332316 0.9954268 0.2286585 0.8418445 0.2332316 0.9954268 0.2286585 0.8464177 0.2286585 0.8464177 0.2332316 0.9954268 0.2286584 0.9954268 0.378811 0.5807927 0.378811 0.542683 0.3833841 0.542683 0.3833841 0.542683 0.378811 0.542683 0.4618902 0.5381098 0.3833841 0.542683 0.4618902 0.5381098 0.457317 0.542683 0.457317 0.542683 0.4618902 0.5381098 0.457317 0.6905488 0.3833841 0.7309452 0.378811 0.7309452 0.3833841 0.695122 0.3833841 0.695122 0.378811 0.7309452 0.378811 0.6905488 0.3833841 0.695122 0.378811 0.6905488 0.457317 0.695122 0.378811 0.6905488 0.457317 0.6905488 0.457317 0.695122 0.457317 0.695122 0.457317 0.6905488 0.4618902 0.5381098 0.457317 0.695122 0.4618902 0.5381098 0.457317 0.8418446 0.457317 0.8418446 0.4618902 0.5381098 0.457317 0.8464177 0.457317 0.8418446 0.457317 0.8464177 0.378811 0.8418446 0.378811 0.8418446 0.457317 0.8464177 0.3833841 0.8464177 0.378811 0.8418446 0.3833841 0.8464177 0.378811 0.8822408 0.378811 0.8822408 0.3833841 0.8464177 0.3833841 0.8822409 0.457317 0.3856707 0.4618902 0.07621949 0.4618902 0.5381097 0.4618902 0.5381097 0.004573106 0.5381097 0.3788109 0.5335366 0.3788109 0.5335366 0.004573106 0.5381097 0.004573106 0.5335366 0.378811 0.4954268 0.3833841 0.4954268 0.3788109 0.5335366 0.3788109 0.5335366 0.3833841 0.4954268 0.3833841 0.5335366 0.3788109 0.5335366 0.3833841 0.5335366 0.4618902 0.5381097 0.4618902 0.5381097 0.3833841 0.5335366 0.457317 0.5335366 0.4618902 0.5381097 0.457317 0.5335366 0.457317 0.3856707 0.457317 0.234375 0.4618902 0.07621949 0.457317 0.3810975 0.457317 0.3810975 0.4618902 0.07621949 0.457317 0.3856707 0.457317 0.3810975 0.457317 0.3856707 0.3833841 0.3810975 0.3833841 0.3810975 0.457317 0.3856707 0.378811 0.3856707 0.3833841 0.3810975 0.378811 0.3856707 0.3833841 0.3452744 0.3833841 0.3452744 0.378811 0.3856707 0.378811 0.3452744 0.2332317 0.08079266 0 0.07621949 0.4618902 0.07621949 0.378811 0.1939786 0.3833841 0.1939786 0.378811 0.234375 0.378811 0.234375 0.3833841 0.1939786 0.3833841 0.2298018 0.378811 0.234375 0.3833841 0.2298018 0.457317 0.234375 0.457317 0.234375 0.3833841 0.2298018 0.457317 0.2298018 0.457317 0.234375 0.457317 0.2298018 0.4618902 0.07621949 0.4618902 0.07621949 0.457317 0.2298018 0.457317 0.08079266 0.4618902 0.07621949 0.457317 0.08079266 0.2332317 0.08079266 0.2286585 0.234375 0.2332317 0.08079266 0.2332316 0.3856707 0.152439 0.3452743 0.1570122 0.3452743 0.1524389 0.3856707 0.1524389 0.3856707 0.1570122 0.3452743 0.1570121 0.3810975 0.1524389 0.3856707 0.1570121 0.3810975 0.2332316 0.3856707 0.2332316 0.3856707 0.1570121 0.3810975 0.2286585 0.3810975 0.2332316 0.3856707 0.2286585 0.3810975 0.2286585 0.234375 0.004573166 0.3833841 0 0.3833841 0.004573166 0.08079266 0.004573166 0.08079266 0 0.3833841 0 0.07621949 0.004573166 0.08079266 0 0.07621949 0.2286585 0.08079266 0.2286585 0.08079266 0 0.07621949 0.2332317 0.08079266 0.2286585 0.08079266 0.2332317 0.08079266 0.2286585 0.2298018 0.2286585 0.2298018 0.2332317 0.08079266 0.2286585 0.234375 0.2286585 0.2298018 0.2286585 0.234375 0.1570122 0.2298018 0.1570122 0.2298018 0.2286585 0.234375 0.152439 0.234375 0.1570122 0.2298018 0.152439 0.234375 0.1570122 0.1939786 0.1570122 0.1939786 0.152439 0.234375 0.152439 0.1939786</float_array>
          <technique_common>
            <accessor source="#场地格挡-mesh-map-0-array" count="468" stride="2">
              <param name="S" type="float"/>
              <param name="T" type="float"/>
            </accessor>
          </technique_common>
        </source>
        <vertices id="场地格挡-mesh-vertices">
          <input semantic="POSITION" source="#场地格挡-mesh-positions"/>
        </vertices>
        <triangles material="材质_002-material" count="156">
          <input semantic="VERTEX" source="#场地格挡-mesh-vertices" offset="0"/>
          <input semantic="NORMAL" source="#场地格挡-mesh-normals" offset="1"/>
          <input semantic="TEXCOORD" source="#场地格挡-mesh-map-0" offset="2" set="0"/>
          <p>0 0 0 1 0 1 2 0 2 2 1 3 1 1 4 3 1 5 4 2 6 0 2 7 5 2 8 5 3 9 0 3 10 2 3 11 6 4 12 4 4 13 7 4 14 7 5 15 4 5 16 5 5 17 8 6 18 6 6 19 9 6 20 9 7 21 6 7 22 7 7 23 10 8 24 8 8 25 11 8 26 11 9 27 8 9 28 9 9 29 12 10 30 10 10 31 13 10 32 13 11 33 10 11 34 11 11 35 14 12 36 12 12 37 15 12 38 15 13 39 12 13 40 13 13 41 16 14 42 14 14 43 17 14 44 17 15 45 14 15 46 15 15 47 18 16 48 16 16 49 19 16 50 19 17 51 16 17 52 17 17 53 20 18 54 18 18 55 21 18 56 21 19 57 18 19 58 19 19 59 22 20 60 20 20 61 23 20 62 23 21 63 20 21 64 21 21 65 24 22 66 22 22 67 25 22 68 25 23 69 22 23 70 23 23 71 26 24 72 24 24 73 27 24 74 27 25 75 24 25 76 25 25 77 28 26 78 26 26 79 29 26 80 29 27 81 26 27 82 27 27 83 30 28 84 28 28 85 31 28 86 31 29 87 28 29 88 29 29 89 32 30 90 30 30 91 33 30 92 33 31 93 30 31 94 31 31 95 34 32 96 32 32 97 35 32 98 35 33 99 32 33 100 33 33 101 36 34 102 34 34 103 37 34 104 37 35 105 34 35 106 35 35 107 38 36 108 36 36 109 39 36 110 39 37 111 36 37 112 37 37 113 40 38 114 38 38 115 41 38 116 41 39 117 38 39 118 39 39 119 42 40 120 40 40 121 43 40 122 43 41 123 40 41 124 41 41 125 44 42 126 42 42 127 45 42 128 45 43 129 42 43 130 43 43 131 46 44 132 44 44 133 47 44 134 47 45 135 44 45 136 45 45 137 48 46 138 46 46 139 49 46 140 49 47 141 46 47 142 47 47 143 50 48 144 48 48 145 51 48 146 51 49 147 48 49 148 49 49 149 52 50 150 50 50 151 53 50 152 53 51 153 50 51 154 51 51 155 54 52 156 52 52 157 55 52 158 55 53 159 52 53 160 53 53 161 56 54 162 54 54 163 57 54 164 57 55 165 54 55 166 55 55 167 58 56 168 56 56 169 59 56 170 59 57 171 56 57 172 57 57 173 60 58 174 58 58 175 61 58 176 61 59 177 58 59 178 59 59 179 62 60 180 60 60 181 63 60 182 63 61 183 60 61 184 61 61 185 64 62 186 62 62 187 65 62 188 65 63 189 62 63 190 63 63 191 66 64 192 64 64 193 67 64 194 67 65 195 64 65 196 65 65 197 68 66 198 66 66 199 69 66 200 69 67 201 66 67 202 67 67 203 70 68 204 68 68 205 71 68 206 71 69 207 68 69 208 69 69 209 72 70 210 70 70 211 73 70 212 73 71 213 70 71 214 71 71 215 74 72 216 72 72 217 75 72 218 75 73 219 72 73 220 73 73 221 76 74 222 74 74 223 77 74 224 77 75 225 74 75 226 75 75 227 78 76 228 76 76 229 79 76 230 79 77 231 76 77 232 77 77 233 1 78 234 78 78 235 3 78 236 3 79 237 78 79 238 79 79 239 62 80 240 64 80 241 66 80 242 46 81 243 48 81 244 50 81 245 54 82 246 56 82 247 52 82 248 52 83 249 56 83 250 58 83 251 66 84 252 68 84 253 62 84 254 62 85 255 68 85 256 70 85 257 62 86 258 70 86 259 60 86 260 60 87 261 70 87 262 16 87 263 16 88 264 18 88 265 60 88 266 60 89 267 18 89 268 20 89 269 60 90 270 20 90 271 58 90 272 76 91 273 78 91 274 74 91 275 74 92 276 78 92 277 1 92 278 74 93 279 1 93 280 72 93 281 72 94 282 1 94 283 0 94 284 8 95 285 10 95 286 6 95 287 6 96 288 10 96 289 12 96 290 6 97 291 12 97 292 4 97 293 4 98 294 12 98 295 14 98 296 4 99 297 14 99 298 0 99 299 0 100 300 14 100 301 16 100 302 0 101 303 16 101 304 72 101 305 72 102 306 16 102 307 70 102 308 50 103 309 52 103 310 46 103 311 46 104 312 52 104 313 58 104 314 46 105 315 58 105 316 44 105 317 44 106 318 58 106 319 42 106 320 36 107 321 38 107 322 34 107 323 34 108 324 38 108 325 40 108 326 34 109 327 40 109 328 32 109 329 40 110 330 42 110 331 32 110 332 32 111 333 42 111 334 58 111 335 32 112 336 58 112 337 30 112 338 30 113 339 58 113 340 20 113 341 30 114 342 20 114 343 28 114 344 28 115 345 20 115 346 22 115 347 28 116 348 22 116 349 26 116 350 26 117 351 22 117 352 24 117 353 43 118 354 61 118 355 59 118 356 59 119 357 57 119 358 53 119 359 53 120 360 57 120 361 55 120 362 51 121 363 49 121 364 53 121 365 53 122 366 49 122 367 47 122 368 53 123 369 47 123 370 59 123 371 59 124 372 47 124 373 45 124 374 59 125 375 45 125 376 43 125 377 31 126 378 61 126 379 33 126 380 33 127 381 61 127 382 43 127 383 33 128 384 43 128 385 35 128 386 35 129 387 43 129 388 41 129 389 35 130 390 41 130 391 37 130 392 37 131 393 41 131 394 39 131 395 17 132 396 63 132 397 61 132 398 27 133 399 25 133 400 29 133 401 29 134 402 25 134 403 23 134 404 29 135 405 23 135 406 31 135 407 31 136 408 23 136 409 21 136 410 31 137 411 21 137 412 61 137 413 61 138 414 21 138 415 19 138 416 61 139 417 19 139 418 17 139 419 2 140 420 17 140 421 15 140 422 11 141 423 9 141 424 13 141 425 13 142 426 9 142 427 7 142 428 13 143 429 7 143 430 15 143 431 15 144 432 7 144 433 5 144 434 15 145 435 5 145 436 2 145 437 67 146 438 65 146 439 69 146 440 69 147 441 65 147 442 63 147 443 69 148 444 63 148 445 71 148 446 71 149 447 63 149 448 17 149 449 71 150 450 17 150 451 73 150 452 73 151 453 17 151 454 2 151 455 73 152 456 2 152 457 75 152 458 75 153 459 2 153 460 3 153 461 75 154 462 3 154 463 77 154 464 77 155 465 3 155 466 79 155 467</p>
        </triangles>
      </mesh>
    </geometry>
  </library_geometries>
  <library_visual_scenes>
    <visual_scene id="Scene" name="Scene">
      <node id="场地格挡" name="场地格挡" type="NODE">
        <matrix sid="transform">1 0 0 0 0 -4.37114e-8 -1 0 0 1 -4.37114e-8 0 0 0 0 1</matrix>
        <instance_geometry url="#场地格挡-mesh" name="场地格挡">
          <bind_material>
            <technique_common>
              <instance_material symbol="材质_002-material" target="#材质_002-material">
                <bind_vertex_input semantic="UV贴图" input_semantic="TEXCOORD" input_set="0"/>
              </instance_material>
            </technique_common>
          </bind_material>
        </instance_geometry>
      </node>
      <node id="Camera" name="Camera" type="NODE">
        <matrix sid="transform">0.6859207 -0.3240135 0.6515582 7.358891 0.7276763 0.3054208 -0.6141704 -6.925791 0 0.8953956 0.4452714 4.958309 0 0 0 1</matrix>
        <instance_camera url="#Camera-camera"/>
      </node>
      <node id="Light" name="Light" type="NODE">
        <matrix sid="transform">-0.2908646 -0.7711008 0.5663932 4.076245 0.9551712 -0.1998834 0.2183912 1.005454 -0.05518906 0.6045247 0.7946723 5.903862 0 0 0 1</matrix>
        <instance_light url="#Light-light"/>
      </node>
    </visual_scene>
  </library_visual_scenes>
  <scene>
    <instance_visual_scene url="#Scene"/>
  </scene>
</COLLADA>