<?xml version="1.0" encoding="utf-8"?>
<COLLADA xmlns="http://www.collada.org/2005/11/COLLADASchema" version="1.4.1" xmlns:xsi="http://www.w3.org/2001/XMLSchema-instance">
  <asset>
    <contributor>
      <author>Blender User</author>
      <authoring_tool>Blender 4.5.0 commit date:2025-07-14, commit time:17:45, hash:8cb6b388974a</authoring_tool>
    </contributor>
    <created>2025-07-23T14:41:56</created>
    <modified>2025-07-23T14:41:56</modified>
    <unit name="meter" meter="1"/>
    <up_axis>Z_UP</up_axis>
  </asset>
  <library_cameras>
    <camera id="Camera-camera" name="Camera">
      <optics>
        <technique_common>
          <perspective>
            <xfov sid="xfov">39.59775</xfov>
            <aspect_ratio>1.777778</aspect_ratio>
            <znear sid="znear">0.1</znear>
            <zfar sid="zfar">100</zfar>
          </perspective>
        </technique_common>
      </optics>
      <extra>
        <technique profile="blender">
          <shiftx sid="shiftx" type="float">0</shiftx>
          <shifty sid="shifty" type="float">0</shifty>
          <dof_distance sid="dof_distance" type="float">10</dof_distance>
        </technique>
      </extra>
    </camera>
  </library_cameras>
  <library_lights>
    <light id="Light-light" name="Light">
      <technique_common>
        <point>
          <color sid="color">1000 1000 1000</color>
          <constant_attenuation>1</constant_attenuation>
          <linear_attenuation>0</linear_attenuation>
          <quadratic_attenuation>0</quadratic_attenuation>
        </point>
      </technique_common>
      <extra>
        <technique profile="blender">
          <type sid="type" type="int">0</type>
          <flag sid="flag" type="int">0</flag>
          <mode sid="mode" type="int">2097153</mode>
          <red sid="red" type="float">1</red>
          <green sid="green" type="float">1</green>
          <blue sid="blue" type="float">1</blue>
          <energy sid="blender_energy" type="float">1000</energy>
          <spotsize sid="spotsize" type="float">75</spotsize>
          <spotblend sid="spotblend" type="float">0.15</spotblend>
          <clipsta sid="clipsta" type="float">0.04999995</clipsta>
          <clipend sid="clipend" type="float">40</clipend>
          <radius sid="radius" type="float">0.1</radius>
          <area_shape sid="area_shape" type="int">1</area_shape>
          <area_size sid="area_size" type="float">0.1</area_size>
          <area_sizey sid="area_sizey" type="float">0.1</area_sizey>
          <area_sizez sid="area_sizez" type="float">1</area_sizez>
        </technique>
      </extra>
    </light>
  </library_lights>
  <library_effects>
    <effect id="材质-effect">
      <profile_COMMON>
        <newparam sid="fire_hazard_png-surface">
          <surface type="2D">
            <init_from>fire_hazard_png</init_from>
          </surface>
        </newparam>
        <newparam sid="fire_hazard_png-sampler">
          <sampler2D>
            <source>fire_hazard_png-surface</source>
          </sampler2D>
        </newparam>
        <technique sid="common">
          <lambert>
            <emission>
              <color sid="emission">0 0 0 1</color>
            </emission>
            <diffuse>
              <texture texture="fire_hazard_png-sampler" texcoord="UV贴图"/>
            </diffuse>
            <index_of_refraction>
              <float sid="ior">1.5</float>
            </index_of_refraction>
          </lambert>
        </technique>
      </profile_COMMON>
    </effect>
  </library_effects>
  <library_images>
    <image id="fire_hazard_png" name="fire_hazard_png">
      <init_from>fire_hazard.png</init_from>
    </image>
  </library_images>
  <library_materials>
    <material id="材质-material" name="材质">
      <instance_effect url="#材质-effect"/>
    </material>
  </library_materials>
  <library_geometries>
    <geometry id="火焰-mesh" name="火焰">
      <mesh>
        <source id="火焰-mesh-positions">
          <float_array id="火焰-mesh-positions-array" count="1074">0.00512278 -0.03974944 7.31918e-4 0.004989624 -0.0385487 7.31918e-4 0.00512278 -0.03974944 0 0.004989624 -0.0385487 0 0.006888449 -0.04568845 7.31918e-4 0.006888449 -0.04568845 0 0.00512278 -0.03974944 0 0.01016044 -0.04889369 7.31918e-4 0.01016044 -0.04889369 0 0.01635873 -0.04889369 7.31918e-4 0.01635873 -0.04889369 0 0.02331435 -0.04772162 7.31918e-4 0.02331435 -0.04772162 0 0.02818322 -0.04954081 7.31918e-4 0.02818322 -0.04954081 0 0.03365987 -0.04791259 7.31918e-4 0.03365987 -0.04791259 0 0.03751391 -0.05000019 7.31918e-4 0.03751391 -0.05000019 0 0.03856313 -0.05000019 7.31918e-4 0.03856313 -0.05000019 0 0.04011476 -0.04895639 7.31918e-4 0.04011476 -0.04895639 0 0.03856313 -0.05000019 0 0.04241544 -0.04895639 7.31918e-4 0.04241544 -0.04895639 0 0.04011476 -0.04895639 0 0.04396706 -0.04791259 7.31918e-4 0.04396706 -0.04791259 0 0.04440224 -0.04568845 7.31918e-4 0.04440224 -0.04568845 0 0.04701679 -0.04271894 7.31918e-4 0.04701679 -0.04271894 0 0.04440224 -0.04568845 0 0.04477888 -0.04338431 7.31918e-4 0.04477888 -0.04338431 0 0.04701679 -0.04271894 0 0.04645889 -0.04084229 7.31918e-4 0.04645889 -0.04084229 0 0.04808336 -0.03974944 7.31918e-4 0.04808336 -0.03974944 0 0.04847037 -0.03777152 7.31918e-4 0.04847037 -0.03777152 0 0.04808336 -0.03974944 0 0.04750621 -0.03633838 7.31918e-4 0.04750621 -0.03633838 0 0.04847037 -0.03777152 0 0.04722583 -0.03777152 7.31918e-4 0.04722583 -0.03777152 0 0.04645889 -0.03663146 7.31918e-4 0.04645889 -0.03663146 0 0.04722583 -0.03777152 0 0.04561889 -0.03719657 7.31918e-4 0.04561889 -0.03719657 0 0.04645889 -0.03663146 0 0.04561889 -0.03926724 7.31918e-4 0.04561889 -0.03926724 0 0.04477888 -0.0364418 7.31918e-4 0.04477888 -0.0364418 0 0.04603886 -0.03411567 7.31918e-4 0.04603886 -0.03411567 0 0.04510611 -0.03272902 7.31918e-4 0.04510611 -0.03272902 0 0.04603886 -0.03411567 0 0.04319125 -0.03146356 7.31919e-4 0.04319125 -0.03146356 0 0.04510611 -0.03272902 0 0.04477888 -0.02906125 7.31919e-4 0.04477888 -0.02906125 0 0.04477888 -0.02795982 7.31919e-4 0.04477888 -0.02795982 0 0.04278993 -0.02906125 7.31919e-4 0.04278993 -0.02906125 0 0.04278993 -0.03272902 7.31918e-4 0.04278993 -0.03272902 0 0.04208916 -0.03146356 7.31919e-4 0.04208916 -0.03146356 0 0.04208916 -0.03027915 7.31919e-4 0.04208916 -0.03027915 0 0.04134535 -0.03027915 7.31919e-4 0.04134535 -0.03027915 0 0.04091727 -0.03146356 7.31919e-4 0.04091727 -0.03146356 0 0.04134535 -0.03027915 0 0.04091727 -0.02851057 7.31919e-4 0.04091727 -0.02851057 0 0.04091727 -0.03146356 0 0.04278993 -0.02332895 7.31919e-4 0.04278993 -0.02332895 0 0.04091727 -0.02851057 0 0.04278993 -0.02225351 7.31919e-4 0.04278993 -0.02225351 0 0.04278993 -0.02332895 0 0.04208916 -0.02098798 7.31919e-4 0.04208916 -0.02098798 0 0.04278993 -0.02225351 0 0.04091727 -0.01973879 7.31919e-4 0.04091727 -0.01973879 0 0.04208916 -0.02098798 0 0.04134535 -0.01855444 7.31919e-4 0.04134535 -0.01855444 0 0.04091727 -0.01839971 7.31919e-4 0.04091727 -0.01839971 0 0.04011476 -0.01839971 7.31919e-4 0.04011476 -0.01839971 0 0.04011476 -0.01973879 7.31919e-4 0.04011476 -0.01973879 0 0.03934592 -0.01973879 7.31919e-4 0.03934592 -0.01973879 0 0.03934592 -0.01822698 7.31919e-4 0.03934592 -0.01822698 0 0.04091727 -0.01665562 7.31919e-4 0.04091727 -0.01665562 0 0.0415464 -0.01525485 7.31919e-4 0.0415464 -0.01525485 0 0.0415464 -0.01431179 7.31919e-4 0.0415464 -0.01431179 0 0.04031014 -0.01127916 7.31919e-4 0.04031014 -0.01127916 0 0.03973031 -0.01127916 7.31919e-4 0.03973031 -0.01127916 0 0.03954595 -0.0135402 7.31919e-4 0.03954595 -0.0135402 0 0.03973031 -0.01127916 0 0.03751391 -0.01744133 7.31919e-4 0.03751391 -0.01744133 0 0.03954595 -0.0135402 0 0.03751391 -0.01874142 7.31919e-4 0.03751391 -0.01874142 0 0.03686386 -0.01809138 7.31919e-4 0.03686386 -0.01809138 0 0.03686386 -0.01898288 7.31919e-4 0.03686386 -0.01898288 0 0.03544026 -0.01549077 7.31919e-4 0.03544026 -0.01549077 0 0.03544026 -0.01240968 7.31919e-4 0.03544026 -0.01240968 0 0.0361799 -0.01098966 7.31919e-4 0.0361799 -0.01098966 0 0.03544026 -0.01240968 0 0.03581011 -0.01008248 7.31919e-4 0.03581011 -0.01008248 0 0.0361799 -0.01098966 0 0.03544026 -0.006454229 7.3192e-4 0.03544026 -0.006454229 0 0.03463405 -0.006454229 7.3192e-4 0.03463405 -0.006454229 0 0.03463405 -0.008975088 7.3192e-4 0.03463405 -0.008975088 0 0.03357619 -0.01053607 7.31919e-4 0.03357619 -0.01053607 0 0.03463405 -0.008975088 0 0.03322637 -0.01053607 7.31919e-4 0.03322637 -0.01053607 0 0.03357619 -0.01053607 0 0.03314679 -0.009755551 7.3192e-4 0.03314679 -0.009755551 0 0.03241431 -0.009374022 7.3192e-4 0.03241431 -0.009374022 0 0.0319063 -0.009882032 7.3192e-4 0.0319063 -0.009882032 0 0.03128808 -0.008365511 7.3192e-4 0.03128808 -0.008365511 0 0.03128808 -0.00560671 7.3192e-4 0.03128808 -0.00560671 0 0.03052717 -0.004845738 7.3192e-4 0.03052717 -0.004845738 0 0.03052717 -0.00382471 7.3192e-4 0.03052717 -0.00382471 0 0.0316351 -0.001564621 7.3192e-4 0.0316351 -0.001564621 0 0.03052717 -0.00382471 0 0.03269994 -5.21555e-4 7.3192e-4 0.03269994 -5.21555e-4 0 0.0316351 -0.001564621 0 0.03241431 0 7.3192e-4 0.03241431 0 0 0.0316351 0 7.3192e-4 0.0316351 0 0 0.03118592 -9.16247e-4 7.3192e-4 0.03118592 -9.16247e-4 0 0.02937042 -0.002694666 7.3192e-4 0.02937042 -0.002694666 0 0.02818322 -0.00456357 7.3192e-4 0.02818322 -0.00456357 0 0.02760684 -0.004197418 7.3192e-4 0.02760684 -0.004197418 0 0.02818322 -0.00456357 0 0.02731055 -0.004197418 7.3192e-4 0.02731055 -0.004197418 0 0.02760684 -0.004197418 0 0.02731055 -0.004845738 7.3192e-4 0.02731055 -0.004845738 0 0.02789503 -0.005217015 7.3192e-4 0.02789503 -0.005217015 0 0.02760279 -0.007149636 7.3192e-4 0.02760279 -0.007149636 0 0.02789503 -0.005217015 0 0.02760279 -0.009374022 7.3192e-4 0.02760279 -0.009374022 0 0.02760279 -0.007149636 0 0.02877682 -0.01193118 7.31919e-4 0.02877682 -0.01193118 0 0.02877682 -0.0135402 7.31919e-4 0.02877682 -0.0135402 0 0.02818983 -0.0135402 7.31919e-4 0.02818983 -0.0135402 0 0.02818983 -0.01273566 7.31919e-4 0.02818983 -0.01273566 0 0.02760279 -0.01236277 7.31919e-4 0.02760279 -0.01236277 0 0.02681761 -0.0106526 7.31919e-4 0.02681761 -0.0106526 0 0.0265392 -0.01098966 7.31919e-4 0.0265392 -0.01098966 0 0.02681761 -0.0106526 0 0.0265392 -0.0135402 7.31919e-4 0.0265392 -0.0135402 0 0.0265392 -0.01098966 0 0.02606809 -0.01665562 7.31919e-4 0.02606809 -0.01665562 0 0.0265392 -0.0135402 0 0.02515602 -0.01809138 7.31919e-4 0.02515602 -0.01809138 0 0.02606809 -0.01665562 0 0.02482646 -0.0173735 7.31919e-4 0.02482646 -0.0173735 0 0.02561205 -0.01613676 7.31919e-4 0.02561205 -0.01613676 0 0.02521926 -0.0152812 7.31919e-4 0.02521926 -0.0152812 0 0.02428752 -0.01570898 7.31919e-4 0.02428752 -0.01570898 0 0.02521926 -0.0152812 0 0.02277415 -0.01809138 7.31919e-4 0.02277415 -0.01809138 0 0.02428752 -0.01570898 0 0.02277415 -0.02061265 7.31919e-4 0.02277415 -0.02061265 0 0.02199488 -0.02061265 7.31919e-4 0.02199488 -0.02061265 0 0.02075999 -0.01935201 7.31919e-4 0.02075999 -0.01935201 0 0.02075999 -0.01809138 7.31919e-4 0.02075999 -0.01809138 0 0.02238452 -0.01553392 7.31919e-4 0.02238452 -0.01553392 0 0.02238452 -0.01431179 7.31919e-4 0.02238452 -0.01431179 0 0.02137744 -0.01328372 7.31919e-4 0.02137744 -0.01328372 0 0.02238452 -0.01431179 0 0.02046966 -0.01328372 7.31919e-4 0.02046966 -0.01328372 0 0.02137744 -0.01328372 0 0.02046966 -0.01460587 7.31919e-4 0.02046966 -0.01460587 0 0.01938784 -0.01681268 7.31919e-4 0.01938784 -0.01681268 0 0.01900386 -0.01935201 7.31919e-4 0.01900386 -0.01935201 0 0.01938784 -0.01681268 0 0.01919585 -0.02124887 7.31919e-4 0.01919585 -0.02124887 0 0.01919585 -0.02281457 7.31919e-4 0.01919585 -0.02281457 0 0.01919585 -0.02124887 0 0.01916038 -0.02323561 7.31919e-4 0.01916038 -0.02323561 0 0.019055 -0.0236448 7.31919e-4 0.019055 -0.0236448 0 0.01888269 -0.02403056 7.31919e-4 0.01888269 -0.02403056 0 0.01864826 -0.02438211 7.31919e-4 0.01864826 -0.02438211 0 0.01835834 -0.02468949 7.31919e-4 0.01835834 -0.02468949 0 0.01802313 -0.02359998 7.31919e-4 0.01802313 -0.02359998 0 0.01835834 -0.02468949 0 0.01802313 -0.02034902 7.31919e-4 0.01802313 -0.02034902 0 0.01802313 -0.02359998 0 0.01757758 -0.02034902 7.31919e-4 0.01757758 -0.02034902 0 0.01735782 -0.0218026 7.31919e-4 0.01735782 -0.0218026 0 0.01757758 -0.02034902 0 0.01667839 -0.02281457 7.31919e-4 0.01667839 -0.02281457 0 0.01646429 -0.02172577 7.31919e-4 0.01646429 -0.02172577 0 0.01697635 -0.02021652 7.31919e-4 0.01697635 -0.02021652 0 0.0166077 -0.01998233 7.31919e-4 0.0166077 -0.01998233 0 0.01697635 -0.02021652 0 0.01568996 -0.02142709 7.31919e-4 0.01568996 -0.02142709 0 0.01545029 -0.01998233 7.31919e-4 0.01545029 -0.01998233 0 0.01568996 -0.02142709 0 0.01592963 -0.01681268 7.31919e-4 0.01592963 -0.01681268 0 0.01493829 -0.01790463 7.31919e-4 0.01493829 -0.01790463 0 0.01592963 -0.01681268 0 0.01191747 -0.02450537 7.31919e-4 0.01191747 -0.02450537 0 0.01493829 -0.01790463 0 0.01124382 -0.02450537 7.31919e-4 0.01124382 -0.02450537 0 0.01191747 -0.02450537 0 0.01124382 -0.0219745 7.31919e-4 0.01124382 -0.0219745 0 0.00976628 -0.02537286 7.31919e-4 0.00976628 -0.02537286 0 0.01124382 -0.0219745 0 0.01050943 -0.02769106 7.31919e-4 0.01050943 -0.02769106 0 0.00976628 -0.02537286 0 0.01076781 -0.02966672 7.31919e-4 0.01076781 -0.02966672 0 0.00976628 -0.0305621 7.31919e-4 0.00976628 -0.0305621 0 0.008930385 -0.02877128 7.31919e-4 0.008930385 -0.02877128 0 0.0082888 -0.02877128 7.31919e-4 0.0082888 -0.02877128 0 0.007580935 -0.0316531 7.31919e-4 0.007580935 -0.0316531 0 0.005857586 -0.03076833 7.31919e-4 0.005857586 -0.03076833 0 0.006555438 -0.03272902 7.31918e-4 0.006555438 -0.03272902 0 0.005857586 -0.03076833 0 0.006555438 -0.0355193 7.31918e-4 0.006555438 -0.0355193 0 0.006555438 -0.03272902 0 0.006146967 -0.03460812 7.31918e-4 0.006146967 -0.03460812 0 0.006555438 -0.0355193 0 0.005857586 -0.03460812 7.31918e-4 0.005857586 -0.03460812 0 0.006146967 -0.03460812 0 0.005545616 -0.03516757 7.31918e-4 0.005545616 -0.03516757 0 0.005857586 -0.03460812 0 0.005647718 -0.03736871 7.31918e-4 0.005647718 -0.03736871 0 0.005545616 -0.03516757 0 0.005647718 -0.03736871 0 0.004989624 -0.0385487 0 0.01646429 -0.02172577 0 0.01667839 -0.02281457 0 0.01545029 -0.01998233 0 0.01735782 -0.0218026 0 0.01900386 -0.01935201 0</float_array>
          <technique_common>
            <accessor source="#火焰-mesh-positions-array" count="358" stride="3">
              <param name="X" type="float"/>
              <param name="Y" type="float"/>
              <param name="Z" type="float"/>
            </accessor>
          </technique_common>
        </source>
        <source id="火焰-mesh-normals">
          <float_array id="火焰-mesh-normals-array" count="1764">-0.9939081 -0.1102128 0 -0.9939081 -0.1102128 0 -0.9585365 -0.28497 0 -0.9585365 -0.28497 0 -0.6997799 -0.7143585 0 -0.6997799 -0.7143585 0 0 -1 0 0 -1 0 0.1661624 -0.9860984 0 0.1661624 -0.9860984 0 -0.3499944 -0.9367518 0 -0.3499944 -0.9367518 0 0.2849692 -0.9585366 0 0.2849693 -0.9585368 0 -0.4762836 -0.8792917 0 -0.4762836 -0.8792917 0 0 -1 0 0 -1 0 0.5581726 -0.8297249 0 0.5581726 -0.8297249 0 0 -1 0 0 -1 0 0.5581675 -0.8297283 0 0.5581675 -0.8297283 0 0.9813913 -0.1920186 0 0.9813913 -0.1920186 0 0.750536 -0.6608296 0 0.7505359 -0.6608297 0 -0.2849684 0.9585369 0 -0.2849684 0.9585369 0 0.8342669 -0.5513609 0 0.8342669 -0.5513609 0 0.5581708 -0.829726 0 0.5581708 -0.829726 0 0.9813903 -0.1920234 0 0.9813903 -0.1920234 0 0.8297261 0.5581709 0 0.8297261 0.5581709 0 -0.9813904 0.1920226 0 -0.9813905 0.1920226 0 0.8297297 0.5581654 0 0.8297297 0.5581654 0 -0.5581685 0.8297277 0 -0.5581684 0.8297276 0 -1 0 0 -1 0 0 0.958536 0.2849714 0 0.958536 0.2849714 0 0.8792914 -0.4762841 0 0.8792914 -0.4762841 0 0.8297275 0.5581687 0 0.8297275 0.5581687 0 0.5513588 0.8342682 0 0.5513589 0.8342682 0 0.8342694 -0.551357 0 0.8342694 -0.551357 0 1 0 0 1 0 0 -0.4844645 0.8748109 0 -0.4844645 0.8748109 0 -1 0 0 -1 0 0 0.8748102 0.484466 0 0.8748101 0.4844659 0 1 0 0 1 0 0 0 1 0 0 1 0 -0.9404637 0.3398941 0 -0.9404637 0.3398941 0 1 0 0 1 0 0 0.9404653 -0.3398895 0 0.9404654 -0.3398895 0 1 0 0 1 0 0 0.8748104 0.4844654 0 0.8748105 0.4844654 0 0.7293354 0.6841564 0 0.7293354 0.6841564 0 0.9404634 -0.339895 0 0.9404634 -0.339895 0 0.3398878 0.9404661 0 0.3398878 0.9404661 0 0 1 0 0 1 0 -1 0 0 -1 0 0 0 1 0 0 1 0 1 0 0 1 0 0 0.7071076 -0.7071059 0 0.7071076 -0.7071059 0 0.9122171 -0.409707 0 0.9122171 -0.409707 0 1 0 0 1 0 0 0.9260108 0.3774971 0 0.9260108 0.377497 0 0 1 0 0 1 0 -0.9966921 0.08127081 0 -0.9966921 0.08127081 0 -0.8868947 0.4619718 0 -0.8868947 0.4619718 0 -1 0 0 -1 0 0 0.7071058 0.7071079 0 0.7071058 0.7071079 0 -1 0 0 -1 0 0 0.9260107 0.3774973 0 0.9260107 0.3774973 0 1 0 0 1 0 0 0.8868953 -0.4619704 0 0.8868953 -0.4619704 0 0.92601 0.3774991 0 0.92601 0.3774991 0 0.994845 0.1014068 0 0.994845 0.1014068 0 0 1 0 0 1 0 -1 0 0 -1 0 0 -0.827801 0.5610219 0 -0.827801 0.5610219 0 0 1 0 0 1 0 0.9948449 0.1014078 0 0.9948449 0.1014078 0 0.4619685 0.8868963 0 0.4619685 0.8868963 0 -0.7071062 0.7071075 0 -0.7071062 0.7071075 0 0.9260101 0.3774986 0 0.9260101 0.3774986 0 1 0 0 1 0 0 0.7071081 0.7071055 0 0.7071081 0.7071055 0 1 0 0 1 0 0 0.8979081 -0.4401831 0 0.8979081 -0.4401831 0 0.6997794 -0.714359 0 0.6997794 -0.714359 0 0.8770695 0.4803636 0 0.8770695 0.4803636 0 0 1 0 0 1 0 -0.8979089 0.4401814 0 -0.8979089 0.4401814 0 -0.6997799 0.7143586 0 -0.6997799 0.7143586 0 -0.8440933 0.5361963 0 -0.8440933 0.5361963 0 0.5361967 0.844093 0 0.5361967 0.844093 0 0 1 0 0 1 0 -1 0 0 -1 0 0 -0.5361981 -0.8440922 0 -0.5361981 -0.8440922 0 -0.9887591 0.1495177 0 -0.9887591 0.1495177 0 -1 0 0 -1 0 0 -0.9087929 -0.4172475 0 -0.9087929 -0.4172475 0 -1 0 0 -1 0 0 0 1 0 0 1 0 1 0 0 1 0 0 0.5361973 0.8440927 0 0.5361973 0.8440927 0 0.9087924 0.4172486 0 0.9087924 0.4172486 0 -0.7709835 0.6368551 0 -0.7709835 0.6368551 0 -1 0 0 -1 0 0 -0.9887592 0.1495167 0 -0.9887592 0.1495167 0 -0.8440929 0.536197 0 -0.8440929 0.536197 0 0.9087938 0.4172455 0 0.9087939 0.4172455 0 0.8440926 -0.5361974 0 0.8440927 -0.5361974 0 0.908792 0.4172495 0 0.908792 0.4172495 0 -0.4172477 0.9087928 0 -0.4172477 0.9087928 0 -0.8440934 0.5361962 0 -0.8440934 0.5361962 0 -1 0 0 -1 0 0 0 1 0 0 1 0 0.7143584 0.6997801 0 0.7143584 0.6997801 0 1 0 0 1 0 0 0.8440936 -0.5361961 0 0.8440935 -0.5361961 0 1 0 0 1 0 0 0.7143592 0.6997792 0 0.7143592 0.6997792 0 0 1 0 0 1 0 -1 0 0 -1 0 0 -0.8979071 0.440185 0 -0.897907 0.4401851 0 -0.9887591 0.1495178 0 -0.9887591 0.1495178 0 -0.9949163 -0.1007044 0 -0.9949164 -0.1007044 0 -1 0 0 -1 0 0 -0.9964724 0.08392173 0 -0.9964724 0.08392173 0 -0.9684048 0.2493838 0 -0.9684048 0.2493838 0 -0.9130514 0.4078446 0 -0.9130514 0.4078446 0 -0.8319839 0.5547999 0 -0.8319839 0.5547999 0 -0.7274752 0.686134 0 -0.7274752 0.686134 0 0.9557792 0.2940854 0 0.9557792 0.2940854 0 1 0 0 1 0 0 0 1 0 0 1 0 -0.9887591 0.1495172 0 -0.9887591 0.1495172 0 -0.8302351 0.5574133 0 -0.8302351 0.5574133 0 0.9812158 0.1929137 0 0.9812158 0.1929137 0 0.9469808 -0.3212903 0 0.9469808 -0.3212903 0 0.5361968 0.844093 0 0.5361968 0.844093 0 -0.8440937 0.5361956 0 -0.8440937 0.5361955 0 0.986519 0.1636469 0 0.986519 0.1636469 0 0.9887591 -0.1495174 0 0.9887591 -0.1495174 0 -0.7404248 0.6721393 0 -0.7404248 0.6721393 0 -0.9092978 0.416146 0 -0.9092978 0.416146 0 0 1 0 0 1 0 1 0 0 1 0 0 -0.9170734 0.3987184 0 -0.9170734 0.3987184 0 -0.9522677 -0.3052642 0 -0.9522677 -0.3052642 0 -0.9915553 -0.1296852 0 -0.9915553 -0.1296852 0 -0.6665115 0.7454947 0 -0.6665116 0.7454947 0 0.9061387 0.4229807 0 0.9061387 0.4229807 0 0 1 0 0 1 0 -0.971137 0.2385225 0 -0.971137 0.2385225 0 0.4567287 0.8896059 0 0.4567287 0.8896059 0 -0.9421111 -0.3353009 0 -0.9421111 -0.3353009 0 -1 0 0 -1 0 0 0.9125044 0.4090669 0 0.9125044 0.4090669 0 0 1 0 0 1 0 -0.8733633 0.4870693 0 -0.8733633 0.4870693 0 -0.9989257 -0.04634177 0 -0.9989257 -0.04634177 0 -0.8733638 0.4870685 0 -0.8733637 0.4870685 0 0 0 1 0 0 1 0 0 1 0 0 1 0 0 1 0 0 1 0 0 1 0 0 1 0 0 1 0 0 1 0 0 1 0 0 1 0 0 1 0 0 1 0 0 1 0 0 1 0 0 1 0 0 1 0 0 1 0 0 1 0 0 1 0 0 1 0 0 1 0 0 1 0 0 1 0 0 1 0 0 1 0 0 1 0 0 1 0 0 1 0 0 1 0 0 1 0 0 1 0 0 1 0 0 1 0 0 1 0 0 1 0 0 1 0 0 1 0 0 1 0 0 1 0 0 1 0 0 1 0 0 1 0 0 1 0 0 1 0 0 1 0 0 1 0 0 1 0 0 1 0 0 1 0 0 1 0 0 1 0 0 1 0 0 1 0 0 1 0 0 1 0 0 1 0 0 1 0 0 1 0 0 1 0 0 1 0 0 1 0 0 1 0 0 1 0 0 1 0 0 1 0 0 1 0 0 1 0 0 1 0 0 1 0 0 1 0 0 1 0 0 1 0 0 1 0 0 1 0 0 1 0 0 1 0 0 1 0 0 1 0 0 1 0 0 1 0 0 1 0 0 1 0 0 1 0 0 1 0 0 1 0 0 1 0 0 1 0 0 1 0 0 1 0 0 1 0 0 1 0 0 1 0 0 1 0 0 1 0 0 1 0 0 1 0 0 1 0 0 1 0 0 1 0 0 1 0 0 1 0 0 1 0 0 1 0 0 1 0 0 1 0 0 1 0 0 1 0 0 1 0 0 1 0 0 1 0 -1.72874e-7 1 0 0 1 0 0 1 0 0 1 0 0 1 0 0 1 0 0 1 0 0 1 0 0 1 0 0 1 0 0 1 0 0 1 0 0 1 0 0 1 0 0 1 0 0 1 0 0 1 0 0 1 0 0 1 0 0 1 0 0 1 0 0 1 0 0 1 1.48159e-7 0 1 0 0 1 0 0 1 0 0 1 0 0 1 0 0 1 0 0 1 0 0 1 0 0 1 0 0 1 0 0 1 0 0 -1 0 0 -1 0 0 -1 0 0 -1 0 0 -1 0 0 -1 0 0 -1 0 0 -1 0 0 -1 0 0 -1 0 0 -1 0 0 -1 0 0 -1 0 0 -1 0 0 -1 0 0 -1 0 0 -1 0 0 -1 0 0 -1 0 0 -1 0 0 -1 0 0 -1 0 0 -1 0 0 -1 0 0 -1 0 0 -1 0 0 -1 0 0 -1 0 0 -1 0 0 -1 0 0 -1 0 0 -1 0 0 -1 0 0 -1 0 0 -1 0 0 -1 0 0 -1 0 0 -1 0 0 -1 0 0 -1 0 0 -1 0 0 -1 0 0 -1 0 0 -1 0 0 -1 0 0 -1 0 0 -1 0 0 -1 0 0 -1 0 0 -1 0 0 -1 0 0 -1 0 0 -1 0 0 -1 0 0 -1 0 0 -1 0 0 -1 0 0 -1 0 0 -1 0 0 -1 0 0 -1 0 0 -1 0 0 -1 0 0 -1 0 0 -1 0 0 -1 0 0 -1 0 0 -1 0 0 -1 0 0 -1 0 0 -1 0 0 -1 0 0 -1 0 0 -1 0 0 -1 0 0 -1 0 0 -1 0 0 -1 0 0 -1 0 0 -1 0 0 -1 0 0 -1 0 0 -1 0 0 -1 0 0 -1 0 0 -1 0 0 -1 0 0 -1 0 0 -1 0 0 -1 0 0 -1 0 0 -1 0 0 -1 0 0 -1 0 0 -1 0 0 -1 0 0 -1 0 0 -1 0 0 -1 0 0 -1 0 0 -1 0 0 -1 0 0 -1 0 0 -1 0 0 -1 0 0 -1 0 0 -1 0 0 -1 0 0 -1 0 0 -1 0 0 -1 0 0 -1 0 0 -1 0 0 -1 0 0 -1 0 0 -1 0 0 -1 0 0 -1 0 0 -1 0 0 -1 0 0 -1 0 0 -1 0 0 -1 0 0 -1 0 0 -1 0 0 -1 0 0 -1 0 0 -1 0 0 -1 0 0 -1 0 0 -1 0 0 -1 0 0 -1 0 0 -1 0 0 -1 0 0 -1 0 0 -1 0 0 -1 0 0 -1 0 0 -1 0 0 -1 0 0 -1 0 0 -1 0 0 -1 0 0 -1 0 0 -1</float_array>
          <technique_common>
            <accessor source="#火焰-mesh-normals-array" count="588" stride="3">
              <param name="X" type="float"/>
              <param name="Y" type="float"/>
              <param name="Z" type="float"/>
            </accessor>
          </technique_common>
        </source>
        <source id="火焰-mesh-map-0">
          <float_array id="火焰-mesh-map-0-array" count="3528">0.1985933 0.280054 0.1964846 0.29907 0.1985933 0.280054 0.1985933 0.280054 0.1964846 0.29907 0.1964846 0.29907 0.2265557 0.1859984 0.1985933 0.280054 0.2265557 0.1859984 0.2265557 0.1859984 0.1985933 0.280054 0.1985933 0.280054 0.278374 0.1352376 0.2265557 0.1859984 0.278374 0.1352376 0.278374 0.1352376 0.2265557 0.1859984 0.2265557 0.1859984 0.376536 0.1352376 0.278374 0.1352376 0.376536 0.1352376 0.376536 0.1352376 0.278374 0.1352376 0.278374 0.1352376 0.486691 0.1537993 0.376536 0.1352376 0.486691 0.1537993 0.486691 0.1537993 0.376536 0.1352376 0.376536 0.1352376 0.5637995 0.1249896 0.486691 0.1537993 0.5637995 0.1249896 0.5637995 0.1249896 0.486691 0.1537993 0.486691 0.1537993 0.6505326 0.150775 0.5637995 0.1249896 0.6505326 0.150775 0.6505326 0.150775 0.5637995 0.1249896 0.5637995 0.1249896 0.7115688 0.1177138 0.6505326 0.150775 0.7115688 0.1177138 0.7115688 0.1177138 0.6505326 0.150775 0.6505326 0.150775 0.7281848 0.1177138 0.7115688 0.1177138 0.7281848 0.1177138 0.7281848 0.1177138 0.7115688 0.1177138 0.7115688 0.1177138 0.7527577 0.1342445 0.7281848 0.1177138 0.7527577 0.1342445 0.7527577 0.1342445 0.7281848 0.1177138 0.7281848 0.1177138 0.7891937 0.1342445 0.7527577 0.1342445 0.7891937 0.1342445 0.7891937 0.1342445 0.7527577 0.1342445 0.7527577 0.1342445 0.8137668 0.150775 0.7891937 0.1342445 0.8137668 0.150775 0.8137668 0.150775 0.7891937 0.1342445 0.7891937 0.1342445 0.8206586 0.1859984 0.8137668 0.150775 0.8206586 0.1859984 0.8206586 0.1859984 0.8137668 0.150775 0.8137668 0.150775 0.8620654 0.2330262 0.8206586 0.1859984 0.8620654 0.2330262 0.8620654 0.2330262 0.8206586 0.1859984 0.8206586 0.1859984 0.8266233 0.2224894 0.8620654 0.2330262 0.8266233 0.2224894 0.8266233 0.2224894 0.8620654 0.2330262 0.8620654 0.2330262 0.8532295 0.2627474 0.8266233 0.2224894 0.8532295 0.2627474 0.8532295 0.2627474 0.8266233 0.2224894 0.8266233 0.2224894 0.8789559 0.280054 0.8532295 0.2627474 0.8789559 0.280054 0.8789559 0.280054 0.8532295 0.2627474 0.8532295 0.2627474 0.8850849 0.3113782 0.8789559 0.280054 0.8850849 0.3113782 0.8850849 0.3113782 0.8789559 0.280054 0.8789559 0.280054 0.8698162 0.3340753 0.8850849 0.3113782 0.8698162 0.3340753 0.8698162 0.3340753 0.8850849 0.3113782 0.8850849 0.3113782 0.8653752 0.3113782 0.8698162 0.3340753 0.8653752 0.3113782 0.8653752 0.3113782 0.8698162 0.3340753 0.8698162 0.3340753 0.8532295 0.3294332 0.8653752 0.3113782 0.8532295 0.3294332 0.8532295 0.3294332 0.8653752 0.3113782 0.8653752 0.3113782 0.8399264 0.3204841 0.8532295 0.3294332 0.8399264 0.3204841 0.8399264 0.3204841 0.8532295 0.3294332 0.8532295 0.3294332 0.8399264 0.2876905 0.8399264 0.3204841 0.8399264 0.2876905 0.8399264 0.2876905 0.8399264 0.3204841 0.8399264 0.3204841 0.8266233 0.3324371 0.8399264 0.2876905 0.8266233 0.3324371 0.8266233 0.3324371 0.8399264 0.2876905 0.8399264 0.2876905 0.846578 0.3692762 0.8266233 0.3324371 0.846578 0.3692762 0.846578 0.3692762 0.8266233 0.3324371 0.8266233 0.3324371 0.8318052 0.391236 0.846578 0.3692762 0.8318052 0.391236 0.8318052 0.391236 0.846578 0.3692762 0.846578 0.3692762 0.8014802 0.4112775 0.8318052 0.391236 0.8014802 0.4112775 0.8014802 0.4112775 0.8318052 0.391236 0.8318052 0.391236 0.8266233 0.4493221 0.8014802 0.4112775 0.8266233 0.4493221 0.8266233 0.4493221 0.8014802 0.4112775 0.8014802 0.4112775 0.8266233 0.4667656 0.8266233 0.4493221 0.8266233 0.4667656 0.8266233 0.4667656 0.8266233 0.4493221 0.8266233 0.4493221 0.795125 0.4493221 0.8266233 0.4667656 0.795125 0.4493221 0.795125 0.4493221 0.8266233 0.4667656 0.8266233 0.4667656 0.795125 0.391236 0.795125 0.4493221 0.795125 0.391236 0.795125 0.391236 0.795125 0.4493221 0.795125 0.4493221 0.7840262 0.4112775 0.795125 0.391236 0.7840262 0.4112775 0.7840262 0.4112775 0.795125 0.391236 0.795125 0.391236 0.7840262 0.4300342 0.7840262 0.4112775 0.7840262 0.4300342 0.7840262 0.4300342 0.7840262 0.4112775 0.7840262 0.4112775 0.7722467 0.4300342 0.7840262 0.4300342 0.7722467 0.4300342 0.7722467 0.4300342 0.7840262 0.4300342 0.7840262 0.4300342 0.7654679 0.4112775 0.7722467 0.4300342 0.7654679 0.4112775 0.7654679 0.4112775 0.7722467 0.4300342 0.7722467 0.4300342 0.7654679 0.4580438 0.7654679 0.4112775 0.7654679 0.4580438 0.7654679 0.4580438 0.7654679 0.4112775 0.7654679 0.4112775 0.795125 0.5401044 0.7654679 0.4580438 0.795125 0.5401044 0.795125 0.5401044 0.7654679 0.4580438 0.7654679 0.4580438 0.795125 0.5571362 0.795125 0.5401044 0.795125 0.5571362 0.795125 0.5571362 0.795125 0.5401044 0.795125 0.5401044 0.7840262 0.5771778 0.795125 0.5571362 0.7840262 0.5771778 0.7840262 0.5771778 0.795125 0.5571362 0.795125 0.5571362 0.7654679 0.5969615 0.7840262 0.5771778 0.7654679 0.5969615 0.7654679 0.5969615 0.7840262 0.5771778 0.7840262 0.5771778 0.7722467 0.6157181 0.7654679 0.5969615 0.7722467 0.6157181 0.7722467 0.6157181 0.7654679 0.5969615 0.7654679 0.5969615 0.7654679 0.6181681 0.7722467 0.6157181 0.7654679 0.6181681 0.7654679 0.6181681 0.7722467 0.6157181 0.7722467 0.6157181 0.7527577 0.6181681 0.7654679 0.6181681 0.7527577 0.6181681 0.7527577 0.6181681 0.7654679 0.6181681 0.7654679 0.6181681 0.7527577 0.5969615 0.7527577 0.6181681 0.7527577 0.5969615 0.7527577 0.5969615 0.7527577 0.6181681 0.7527577 0.6181681 0.7405818 0.5969615 0.7527577 0.5969615 0.7405818 0.5969615 0.7405818 0.5969615 0.7527577 0.5969615 0.7527577 0.5969615 0.7405818 0.6209035 0.7405818 0.5969615 0.7405818 0.6209035 0.7405818 0.6209035 0.7405818 0.5969615 0.7405818 0.5969615 0.7654679 0.6457897 0.7405818 0.6209035 0.7654679 0.6457897 0.7654679 0.6457897 0.7405818 0.6209035 0.7405818 0.6209035 0.775431 0.6679728 0.7654679 0.6457897 0.775431 0.6679728 0.775431 0.6679728 0.7654679 0.6457897 0.7654679 0.6457897 0.775431 0.6829082 0.775431 0.6679728 0.775431 0.6829082 0.775431 0.6829082 0.775431 0.6679728 0.775431 0.6679728 0.7558522 0.7309356 0.775431 0.6829082 0.7558522 0.7309356 0.7558522 0.7309356 0.775431 0.6829082 0.775431 0.6829082 0.7466697 0.7309356 0.7558522 0.7309356 0.7466697 0.7309356 0.7466697 0.7309356 0.7558522 0.7309356 0.7558522 0.7309356 0.74375 0.6951281 0.7466697 0.7309356 0.74375 0.6951281 0.74375 0.6951281 0.7466697 0.7309356 0.7466697 0.7309356 0.7115688 0.6333466 0.74375 0.6951281 0.7115688 0.6333466 0.7115688 0.6333466 0.74375 0.6951281 0.74375 0.6951281 0.7115688 0.6127569 0.7115688 0.6333466 0.7115688 0.6127569 0.7115688 0.6127569 0.7115688 0.6333466 0.7115688 0.6333466 0.7012739 0.6230518 0.7115688 0.6127569 0.7012739 0.6230518 0.7012739 0.6230518 0.7115688 0.6127569 0.7115688 0.6127569 0.7012739 0.6089324 0.7012739 0.6230518 0.7012739 0.6089324 0.7012739 0.6089324 0.7012739 0.6230518 0.7012739 0.6230518 0.6787284 0.6642374 0.7012739 0.6089324 0.6787284 0.6642374 0.6787284 0.6642374 0.7012739 0.6089324 0.7012739 0.6089324 0.6787284 0.7130318 0.6787284 0.6642374 0.6787284 0.7130318 0.6787284 0.7130318 0.6787284 0.6642374 0.6787284 0.6642374 0.6904424 0.7355206 0.6787284 0.7130318 0.6904424 0.7355206 0.6904424 0.7355206 0.6787284 0.7130318 0.6787284 0.7130318 0.6845853 0.7498881 0.6904424 0.7355206 0.6845853 0.7498881 0.6845853 0.7498881 0.6904424 0.7355206 0.6904424 0.7355206 0.6787284 0.8073477 0.6845853 0.7498881 0.6787284 0.8073477 0.6787284 0.8073477 0.6845853 0.7498881 0.6845853 0.7498881 0.6659609 0.8073477 0.6787284 0.8073477 0.6659609 0.8073477 0.6659609 0.8073477 0.6787284 0.8073477 0.6787284 0.8073477 0.6659609 0.7674251 0.6659609 0.8073477 0.6659609 0.7674251 0.6659609 0.7674251 0.6659609 0.8073477 0.6659609 0.8073477 0.649207 0.7427043 0.6659609 0.7674251 0.649207 0.7427043 0.649207 0.7427043 0.6659609 0.7674251 0.6659609 0.7674251 0.6436671 0.7427043 0.649207 0.7427043 0.6436671 0.7427043 0.6436671 0.7427043 0.649207 0.7427043 0.649207 0.7427043 0.6424072 0.7550647 0.6436671 0.7427043 0.6424072 0.7550647 0.6424072 0.7550647 0.6436671 0.7427043 0.6436671 0.7427043 0.6308068 0.7611072 0.6424072 0.7550647 0.6308068 0.7611072 0.6308068 0.7611072 0.6424072 0.7550647 0.6424072 0.7550647 0.6227617 0.7530623 0.6308068 0.7611072 0.6227617 0.7530623 0.6227617 0.7530623 0.6308068 0.7611072 0.6308068 0.7611072 0.612971 0.7770792 0.6227617 0.7530623 0.612971 0.7770792 0.612971 0.7770792 0.6227617 0.7530623 0.6227617 0.7530623 0.612971 0.82077 0.612971 0.7770792 0.612971 0.82077 0.612971 0.82077 0.612971 0.7770792 0.612971 0.7770792 0.60092 0.8328211 0.612971 0.82077 0.60092 0.8328211 0.60092 0.8328211 0.612971 0.82077 0.612971 0.82077 0.60092 0.8489912 0.60092 0.8328211 0.60092 0.8489912 0.60092 0.8489912 0.60092 0.8328211 0.60092 0.8328211 0.6184667 0.8847839 0.60092 0.8489912 0.6184667 0.8847839 0.6184667 0.8847839 0.60092 0.8489912 0.60092 0.8489912 0.6353306 0.9013036 0.6184667 0.8847839 0.6353306 0.9013036 0.6353306 0.9013036 0.6184667 0.8847839 0.6184667 0.8847839 0.6308068 0.9095634 0.6353306 0.9013036 0.6308068 0.9095634 0.6308068 0.9095634 0.6353306 0.9013036 0.6353306 0.9013036 0.6184667 0.9095634 0.6308068 0.9095634 0.6184667 0.9095634 0.6184667 0.9095634 0.6308068 0.9095634 0.6308068 0.9095634 0.6113532 0.8950529 0.6184667 0.9095634 0.6113532 0.8950529 0.6113532 0.8950529 0.6184667 0.9095634 0.6184667 0.9095634 0.5826011 0.8668875 0.6113532 0.8950529 0.5826011 0.8668875 0.5826011 0.8668875 0.6113532 0.8950529 0.6113532 0.8950529 0.5637995 0.8372897 0.5826011 0.8668875 0.5637995 0.8372897 0.5637995 0.8372897 0.5826011 0.8668875 0.5826011 0.8668875 0.5546709 0.8430885 0.5637995 0.8372897 0.5546709 0.8430885 0.5546709 0.8430885 0.5637995 0.8372897 0.5637995 0.8372897 0.5499789 0.8430885 0.5546709 0.8430885 0.5499789 0.8430885 0.5499789 0.8430885 0.5546709 0.8430885 0.5546709 0.8430885 0.5499789 0.8328211 0.5499789 0.8430885 0.5499789 0.8328211 0.5499789 0.8328211 0.5499789 0.8430885 0.5499789 0.8430885 0.5592353 0.8269411 0.5499789 0.8328211 0.5592353 0.8269411 0.5592353 0.8269411 0.5499789 0.8328211 0.5499789 0.8328211 0.554607 0.7963346 0.5592353 0.8269411 0.554607 0.7963346 0.554607 0.7963346 0.5592353 0.8269411 0.5592353 0.8269411 0.554607 0.7611072 0.554607 0.7963346 0.554607 0.7611072 0.554607 0.7611072 0.554607 0.7963346 0.554607 0.7963346 0.5732003 0.7206099 0.554607 0.7611072 0.5732003 0.7206099 0.5732003 0.7206099 0.554607 0.7611072 0.554607 0.7611072 0.5732003 0.6951281 0.5732003 0.7206099 0.5732003 0.6951281 0.5732003 0.6951281 0.5732003 0.7206099 0.5732003 0.7206099 0.5639037 0.6951281 0.5732003 0.6951281 0.5639037 0.6951281 0.5639037 0.6951281 0.5732003 0.6951281 0.5732003 0.6951281 0.5639037 0.707869 0.5639037 0.6951281 0.5639037 0.707869 0.5639037 0.707869 0.5639037 0.6951281 0.5639037 0.6951281 0.554607 0.7137746 0.5639037 0.707869 0.554607 0.7137746 0.554607 0.7137746 0.5639037 0.707869 0.5639037 0.707869 0.5421721 0.7408586 0.554607 0.7137746 0.5421721 0.7408586 0.5421721 0.7408586 0.554607 0.7137746 0.554607 0.7137746 0.5377628 0.7355206 0.5421721 0.7408586 0.5377628 0.7355206 0.5377628 0.7355206 0.5421721 0.7408586 0.5421721 0.7408586 0.5377628 0.6951281 0.5377628 0.7355206 0.5377628 0.6951281 0.5377628 0.6951281 0.5377628 0.7355206 0.5377628 0.7355206 0.5303021 0.6457897 0.5377628 0.6951281 0.5303021 0.6457897 0.5303021 0.6457897 0.5377628 0.6951281 0.5377628 0.6951281 0.5158581 0.6230518 0.5303021 0.6457897 0.5158581 0.6230518 0.5158581 0.6230518 0.5303021 0.6457897 0.5303021 0.6457897 0.5106383 0.6344208 0.5158581 0.6230518 0.5106383 0.6344208 0.5106383 0.6344208 0.5158581 0.6230518 0.5158581 0.6230518 0.5230801 0.6540067 0.5106383 0.6344208 0.5230801 0.6540067 0.5230801 0.6540067 0.5106383 0.6344208 0.5106383 0.6344208 0.5168592 0.6675562 0.5230801 0.6540067 0.5168592 0.6675562 0.5168592 0.6675562 0.5230801 0.6540067 0.5230801 0.6540067 0.5021034 0.6607815 0.5168592 0.6675562 0.5021034 0.6607815 0.5021034 0.6607815 0.5168592 0.6675562 0.5168592 0.6675562 0.4781362 0.6230518 0.5021034 0.6607815 0.4781362 0.6230518 0.4781362 0.6230518 0.5021034 0.6607815 0.5021034 0.6607815 0.4781362 0.583122 0.4781362 0.6230518 0.4781362 0.583122 0.4781362 0.583122 0.4781362 0.6230518 0.4781362 0.6230518 0.4657953 0.583122 0.4781362 0.583122 0.4657953 0.583122 0.4657953 0.583122 0.4781362 0.583122 0.4781362 0.583122 0.4462379 0.6030868 0.4657953 0.583122 0.4462379 0.6030868 0.4462379 0.6030868 0.4657953 0.583122 0.4657953 0.583122 0.4462379 0.6230518 0.4462379 0.6030868 0.4462379 0.6230518 0.4462379 0.6230518 0.4462379 0.6030868 0.4462379 0.6030868 0.4719657 0.6635532 0.4462379 0.6230518 0.4719657 0.6635532 0.4719657 0.6635532 0.4462379 0.6230518 0.4462379 0.6230518 0.4719657 0.6829082 0.4719657 0.6635532 0.4719657 0.6829082 0.4719657 0.6829082 0.4719657 0.6635532 0.4719657 0.6635532 0.4560167 0.6991896 0.4719657 0.6829082 0.4560167 0.6991896 0.4560167 0.6991896 0.4719657 0.6829082 0.4719657 0.6829082 0.4416405 0.6991896 0.4560167 0.6991896 0.4416405 0.6991896 0.4416405 0.6991896 0.4560167 0.6991896 0.4560167 0.6991896 0.4416405 0.6782504 0.4416405 0.6991896 0.4416405 0.6782504 0.4416405 0.6782504 0.4416405 0.6991896 0.4416405 0.6991896 0.4245077 0.6433025 0.4416405 0.6782504 0.4245077 0.6433025 0.4245077 0.6433025 0.4416405 0.6782504 0.4416405 0.6782504 0.4184265 0.6030868 0.4245077 0.6433025 0.4184265 0.6030868 0.4184265 0.6030868 0.4245077 0.6433025 0.4245077 0.6433025 0.4214671 0.5730463 0.4184265 0.6030868 0.4214671 0.5730463 0.4214671 0.5730463 0.4184265 0.6030868 0.4184265 0.6030868 0.4214671 0.5482507 0.4214671 0.5730463 0.4214671 0.5482507 0.4214671 0.5482507 0.4214671 0.5730463 0.4214671 0.5730463 0.4214671 0.5482507 0.4214671 0.5482507 0.4209056 0.5415828 0.4209056 0.5415828 0.4214671 0.5482507 0.4209056 0.5415828 0.4209056 0.5415828 0.4209056 0.5415828 0.4192368 0.5351027 0.4192368 0.5351027 0.4209056 0.5415828 0.4192368 0.5351027 0.4192368 0.5351027 0.4192368 0.5351027 0.4165077 0.5289929 0.4165077 0.5289929 0.4192368 0.5351027 0.4165077 0.5289929 0.4165077 0.5289929 0.4165077 0.5289929 0.4127952 0.5234256 0.4127952 0.5234256 0.4165077 0.5289929 0.4127952 0.5234256 0.4127952 0.5234256 0.4127952 0.5234256 0.408204 0.5185577 0.408204 0.5185577 0.4127952 0.5234256 0.408204 0.5185577 0.4028949 0.5358121 0.408204 0.5185577 0.4028949 0.5358121 0.4028949 0.5358121 0.408204 0.5185577 0.408204 0.5185577 0.4028949 0.5872976 0.4028949 0.5358121 0.4028949 0.5872976 0.4028949 0.5872976 0.4028949 0.5358121 0.4028949 0.5358121 0.3958392 0.5872976 0.4028949 0.5872976 0.3958392 0.5872976 0.3958392 0.5872976 0.4028949 0.5872976 0.4028949 0.5872976 0.3923581 0.5642772 0.3958392 0.5872976 0.3923581 0.5642772 0.3923581 0.5642772 0.3958392 0.5872976 0.3958392 0.5872976 0.3815979 0.5482507 0.3923581 0.5642772 0.3815979 0.5482507 0.3815979 0.5482507 0.3923581 0.5642772 0.3923581 0.5642772 0.3782079 0.5654934 0.3815979 0.5482507 0.3782079 0.5654934 0.3782079 0.5654934 0.3815979 0.5482507 0.3815979 0.5482507 0.3863174 0.5893956 0.3782079 0.5654934 0.3863174 0.5893956 0.3863174 0.5893956 0.3782079 0.5654934 0.3782079 0.5654934 0.3804789 0.5931044 0.3863174 0.5893956 0.3804789 0.5931044 0.3804789 0.5931044 0.3863174 0.5893956 0.3863174 0.5893956 0.3659447 0.5702243 0.3804789 0.5931044 0.3659447 0.5702243 0.3659447 0.5702243 0.3804789 0.5931044 0.3804789 0.5931044 0.3621492 0.5931044 0.3659447 0.5702243 0.3621492 0.5931044 0.3621492 0.5931044 0.3659447 0.5702243 0.3659447 0.5702243 0.36974 0.6433025 0.3621492 0.5931044 0.36974 0.6433025 0.36974 0.6433025 0.3621492 0.5931044 0.3621492 0.5931044 0.3540409 0.6260083 0.36974 0.6433025 0.3540409 0.6260083 0.3540409 0.6260083 0.36974 0.6433025 0.36974 0.6433025 0.3061999 0.5214737 0.3540409 0.6260083 0.3061999 0.5214737 0.3061999 0.5214737 0.3540409 0.6260083 0.3540409 0.6260083 0.2955317 0.5214737 0.3061999 0.5214737 0.2955317 0.5214737 0.2955317 0.5214737 0.3061999 0.5214737 0.3061999 0.5214737 0.2955317 0.5615549 0.2955317 0.5214737 0.2955317 0.5615549 0.2955317 0.5615549 0.2955317 0.5214737 0.2955317 0.5214737 0.2721322 0.5077347 0.2955317 0.5615549 0.2721322 0.5077347 0.2721322 0.5077347 0.2955317 0.5615549 0.2955317 0.5615549 0.2839011 0.4710218 0.2721322 0.5077347 0.2839011 0.4710218 0.2839011 0.4710218 0.2721322 0.5077347 0.2721322 0.5077347 0.2879932 0.4397339 0.2839011 0.4710218 0.2879932 0.4397339 0.2879932 0.4397339 0.2839011 0.4710218 0.2839011 0.4710218 0.2721322 0.4255533 0.2879932 0.4397339 0.2721322 0.4255533 0.2721322 0.4255533 0.2879932 0.4397339 0.2879932 0.4397339 0.2588933 0.4539145 0.2721322 0.4255533 0.2588933 0.4539145 0.2588933 0.4539145 0.2721322 0.4255533 0.2721322 0.4255533 0.2487326 0.4539145 0.2588933 0.4539145 0.2487326 0.4539145 0.2487326 0.4539145 0.2588933 0.4539145 0.2588933 0.4539145 0.2375231 0.4082753 0.2487326 0.4539145 0.2375231 0.4082753 0.2375231 0.4082753 0.2487326 0.4539145 0.2487326 0.4539145 0.2102302 0.4222875 0.2375231 0.4082753 0.2102302 0.4222875 0.2102302 0.4222875 0.2375231 0.4082753 0.2375231 0.4082753 0.2212816 0.391236 0.2102302 0.4222875 0.2212816 0.391236 0.2212816 0.391236 0.2102302 0.4222875 0.2102302 0.4222875 0.2212816 0.3470469 0.2212816 0.391236 0.2212816 0.3470469 0.2212816 0.3470469 0.2212816 0.391236 0.2212816 0.391236 0.2148128 0.3614768 0.2212816 0.3470469 0.2148128 0.3614768 0.2148128 0.3614768 0.2212816 0.3470469 0.2212816 0.3470469 0.2102302 0.3614768 0.2148128 0.3614768 0.2102302 0.3614768 0.2102302 0.3614768 0.2148128 0.3614768 0.2148128 0.3614768 0.2052893 0.3526172 0.2102302 0.3614768 0.2052893 0.3526172 0.2052893 0.3526172 0.2102302 0.3614768 0.2102302 0.3614768 0.2069065 0.3177576 0.2052893 0.3526172 0.2069065 0.3177576 0.2069065 0.3177576 0.2052893 0.3526172 0.2052893 0.3526172 0.1964846 0.29907 0.2069065 0.3177576 0.1964846 0.29907 0.1964846 0.29907 0.2069065 0.3177576 0.2069065 0.3177576 0.8653752 0.3113782 0.8532295 0.3294332 0.8399264 0.3204841 0.8318052 0.391236 0.8014802 0.4112775 0.795125 0.391236 0.8206586 0.1859984 0.8620654 0.2330262 0.8266233 0.2224894 0.8850849 0.3113782 0.8698162 0.3340753 0.8789559 0.280054 0.8789559 0.280054 0.8698162 0.3340753 0.8653752 0.3113782 0.8789559 0.280054 0.8653752 0.3113782 0.8399264 0.2876905 0.8399264 0.2876905 0.8653752 0.3113782 0.8399264 0.3204841 0.7654679 0.6181681 0.7527577 0.6181681 0.7527577 0.5969615 0.7115688 0.6127569 0.7012739 0.6230518 0.7012739 0.6089324 0.8266233 0.3324371 0.8266233 0.2224894 0.8399264 0.2876905 0.8399264 0.2876905 0.8266233 0.2224894 0.8532295 0.2627474 0.8399264 0.2876905 0.8532295 0.2627474 0.8789559 0.280054 0.8266233 0.4493221 0.8266233 0.4667656 0.8014802 0.4112775 0.8014802 0.4112775 0.8266233 0.4667656 0.795125 0.4493221 0.8014802 0.4112775 0.795125 0.4493221 0.795125 0.391236 0.2955317 0.5214737 0.2955317 0.5615549 0.2721322 0.5077347 0.7840262 0.4300342 0.7722467 0.4300342 0.7840262 0.4112775 0.7840262 0.4112775 0.7722467 0.4300342 0.7654679 0.4112775 0.7840262 0.4112775 0.7654679 0.4112775 0.795125 0.391236 0.554607 0.7137746 0.5421721 0.7408586 0.5377628 0.7355206 0.2148128 0.3614768 0.2102302 0.3614768 0.2212816 0.3470469 0.2212816 0.3470469 0.2102302 0.3614768 0.2052893 0.3526172 0.2265557 0.1859984 0.278374 0.1352376 0.1985933 0.280054 0.1985933 0.280054 0.278374 0.1352376 0.2069065 0.3177576 0.1985933 0.280054 0.2069065 0.3177576 0.1964846 0.29907 0.8137668 0.150775 0.8206586 0.1859984 0.7891937 0.1342445 0.7891937 0.1342445 0.8206586 0.1859984 0.8266233 0.2224894 0.7891937 0.1342445 0.8266233 0.2224894 0.7527577 0.1342445 0.7722467 0.6157181 0.7654679 0.6181681 0.7654679 0.5969615 0.7654679 0.5969615 0.7654679 0.6181681 0.7527577 0.5969615 0.7654679 0.5969615 0.7527577 0.5969615 0.7840262 0.5771778 0.7840262 0.5771778 0.7527577 0.5969615 0.795125 0.5571362 0.795125 0.5571362 0.7527577 0.5969615 0.795125 0.5401044 0.795125 0.5401044 0.7527577 0.5969615 0.7405818 0.5969615 0.795125 0.5401044 0.7405818 0.5969615 0.7654679 0.4580438 0.3863174 0.5893956 0.3804789 0.5931044 0.3782079 0.5654934 0.3782079 0.5654934 0.3804789 0.5931044 0.3659447 0.5702243 0.3782079 0.5654934 0.3659447 0.5702243 0.3815979 0.5482507 0.7281848 0.1177138 0.7527577 0.1342445 0.7654679 0.4112775 0.7654679 0.4112775 0.7527577 0.1342445 0.8266233 0.2224894 0.7654679 0.4112775 0.8266233 0.2224894 0.795125 0.391236 0.795125 0.391236 0.8266233 0.2224894 0.8266233 0.3324371 0.795125 0.391236 0.8266233 0.3324371 0.8318052 0.391236 0.8318052 0.391236 0.8266233 0.3324371 0.846578 0.3692762 0.7558522 0.7309356 0.7466697 0.7309356 0.775431 0.6829082 0.775431 0.6829082 0.7466697 0.7309356 0.74375 0.6951281 0.554607 0.7963346 0.554607 0.7611072 0.5732003 0.7206099 0.2102302 0.4222875 0.2212816 0.391236 0.2375231 0.4082753 0.2375231 0.4082753 0.2212816 0.391236 0.2212816 0.3470469 0.2375231 0.4082753 0.2212816 0.3470469 0.278374 0.1352376 0.278374 0.1352376 0.2212816 0.3470469 0.2052893 0.3526172 0.278374 0.1352376 0.2052893 0.3526172 0.2069065 0.3177576 0.775431 0.6679728 0.775431 0.6829082 0.7654679 0.6457897 0.7654679 0.6457897 0.775431 0.6829082 0.74375 0.6951281 0.7654679 0.6457897 0.74375 0.6951281 0.7405818 0.6209035 0.7405818 0.6209035 0.74375 0.6951281 0.7115688 0.6333466 0.7405818 0.6209035 0.7115688 0.6333466 0.7405818 0.5969615 0.7405818 0.5969615 0.7115688 0.6333466 0.7115688 0.6127569 0.7405818 0.5969615 0.7115688 0.6127569 0.7654679 0.4580438 0.7654679 0.4580438 0.7115688 0.6127569 0.7012739 0.6089324 0.7654679 0.4580438 0.7012739 0.6089324 0.7654679 0.4112775 0.4028949 0.5872976 0.3958392 0.5872976 0.4028949 0.5358121 0.4028949 0.5358121 0.3958392 0.5872976 0.3923581 0.5642772 0.4028949 0.5358121 0.3923581 0.5642772 0.3815979 0.5482507 0.2955317 0.5214737 0.2721322 0.5077347 0.3061999 0.5214737 0.6845853 0.7498881 0.6787284 0.8073477 0.6659609 0.8073477 0.6424072 0.7550647 0.6308068 0.7611072 0.6436671 0.7427043 0.6436671 0.7427043 0.6308068 0.7611072 0.6227617 0.7530623 0.6436671 0.7427043 0.6227617 0.7530623 0.486691 0.1537993 0.4781362 0.6230518 0.4781362 0.583122 0.5106383 0.6344208 0.5106383 0.6344208 0.4781362 0.583122 0.5158581 0.6230518 0.4127952 0.5234256 0.408204 0.5185577 0.278374 0.1352376 0.36974 0.6433025 0.3540409 0.6260083 0.3621492 0.5931044 0.3621492 0.5931044 0.3540409 0.6260083 0.3061999 0.5214737 0.3621492 0.5931044 0.3061999 0.5214737 0.3659447 0.5702243 0.3659447 0.5702243 0.3061999 0.5214737 0.278374 0.1352376 0.3659447 0.5702243 0.278374 0.1352376 0.3815979 0.5482507 0.3815979 0.5482507 0.278374 0.1352376 0.408204 0.5185577 0.3815979 0.5482507 0.408204 0.5185577 0.4028949 0.5358121 0.2721322 0.5077347 0.2839011 0.4710218 0.3061999 0.5214737 0.3061999 0.5214737 0.2839011 0.4710218 0.2879932 0.4397339 0.3061999 0.5214737 0.2879932 0.4397339 0.278374 0.1352376 0.278374 0.1352376 0.2879932 0.4397339 0.2721322 0.4255533 0.278374 0.1352376 0.2721322 0.4255533 0.2375231 0.4082753 0.2375231 0.4082753 0.2721322 0.4255533 0.2588933 0.4539145 0.2375231 0.4082753 0.2588933 0.4539145 0.2487326 0.4539145 0.649207 0.7427043 0.6787284 0.6642374 0.6787284 0.7130318 0.612971 0.7770792 0.612971 0.82077 0.60092 0.8328211 0.5499789 0.8430885 0.5499789 0.8328211 0.5546709 0.8430885 0.5546709 0.8430885 0.5499789 0.8328211 0.5592353 0.8269411 0.5377628 0.7355206 0.5377628 0.6951281 0.554607 0.7137746 0.554607 0.7137746 0.5377628 0.6951281 0.5639037 0.6951281 0.554607 0.7137746 0.5639037 0.6951281 0.5639037 0.707869 0.5230801 0.6540067 0.5168592 0.6675562 0.5106383 0.6344208 0.5106383 0.6344208 0.5168592 0.6675562 0.5021034 0.6607815 0.5106383 0.6344208 0.5021034 0.6607815 0.4781362 0.6230518 0.486691 0.1537993 0.5637995 0.1249896 0.6505326 0.150775 0.554607 0.7963346 0.5732003 0.7206099 0.5592353 0.8269411 0.5592353 0.8269411 0.5732003 0.7206099 0.5637995 0.8372897 0.5592353 0.8269411 0.5637995 0.8372897 0.5546709 0.8430885 0.6787284 0.7130318 0.6904424 0.7355206 0.649207 0.7427043 0.649207 0.7427043 0.6904424 0.7355206 0.6845853 0.7498881 0.649207 0.7427043 0.6845853 0.7498881 0.6659609 0.7674251 0.6659609 0.7674251 0.6845853 0.7498881 0.6659609 0.8073477 0.649207 0.7427043 0.6436671 0.7427043 0.6787284 0.6642374 0.6787284 0.6642374 0.6436671 0.7427043 0.486691 0.1537993 0.6787284 0.6642374 0.486691 0.1537993 0.7012739 0.6089324 0.7012739 0.6089324 0.486691 0.1537993 0.6505326 0.150775 0.7012739 0.6089324 0.6505326 0.150775 0.7654679 0.4112775 0.7654679 0.4112775 0.6505326 0.150775 0.7115688 0.1177138 0.7654679 0.4112775 0.7115688 0.1177138 0.7281848 0.1177138 0.4214671 0.5482507 0.4209056 0.5415828 0.4657953 0.583122 0.4657953 0.583122 0.4209056 0.5415828 0.4192368 0.5351027 0.4657953 0.583122 0.4192368 0.5351027 0.4165077 0.5289929 0.5377628 0.6951281 0.5303021 0.6457897 0.5639037 0.6951281 0.5639037 0.6951281 0.5303021 0.6457897 0.486691 0.1537993 0.5639037 0.6951281 0.486691 0.1537993 0.5732003 0.6951281 0.5732003 0.6951281 0.486691 0.1537993 0.6227617 0.7530623 0.5732003 0.6951281 0.6227617 0.7530623 0.5732003 0.7206099 0.5732003 0.7206099 0.6227617 0.7530623 0.612971 0.7770792 0.5732003 0.7206099 0.612971 0.7770792 0.5637995 0.8372897 0.6308068 0.9095634 0.6184667 0.9095634 0.6113532 0.8950529 0.612971 0.7770792 0.60092 0.8328211 0.5637995 0.8372897 0.5637995 0.8372897 0.60092 0.8328211 0.60092 0.8489912 0.5637995 0.8372897 0.60092 0.8489912 0.5826011 0.8668875 0.5826011 0.8668875 0.60092 0.8489912 0.6184667 0.8847839 0.5826011 0.8668875 0.6184667 0.8847839 0.6113532 0.8950529 0.6113532 0.8950529 0.6184667 0.8847839 0.6353306 0.9013036 0.6113532 0.8950529 0.6353306 0.9013036 0.6308068 0.9095634 0.5303021 0.6457897 0.5158581 0.6230518 0.486691 0.1537993 0.486691 0.1537993 0.5158581 0.6230518 0.4781362 0.583122 0.486691 0.1537993 0.4781362 0.583122 0.376536 0.1352376 0.376536 0.1352376 0.4781362 0.583122 0.4657953 0.583122 0.376536 0.1352376 0.4657953 0.583122 0.278374 0.1352376 0.278374 0.1352376 0.4657953 0.583122 0.4165077 0.5289929 0.278374 0.1352376 0.4165077 0.5289929 0.4127952 0.5234256 0.4560167 0.6991896 0.4416405 0.6991896 0.4719657 0.6829082 0.4719657 0.6829082 0.4416405 0.6991896 0.4416405 0.6782504 0.4719657 0.6829082 0.4416405 0.6782504 0.4719657 0.6635532 0.4719657 0.6635532 0.4416405 0.6782504 0.4462379 0.6230518 0.4462379 0.6230518 0.4416405 0.6782504 0.4245077 0.6433025 0.4462379 0.6230518 0.4245077 0.6433025 0.4462379 0.6030868 0.4462379 0.6030868 0.4245077 0.6433025 0.4184265 0.6030868 0.4462379 0.6030868 0.4184265 0.6030868 0.4657953 0.583122 0.4657953 0.583122 0.4184265 0.6030868 0.4214671 0.5730463 0.4657953 0.583122 0.4214671 0.5730463 0.4214671 0.5482507 0.8653752 0.3113782 0.8698162 0.3340753 0.8850849 0.3113782 0.7527577 0.1342445 0.7281848 0.1177138 0.7115688 0.1177138 0.1985933 0.280054 0.1964846 0.29907 0.2069065 0.3177576 0.7115688 0.6127569 0.7654679 0.4580438 0.7654679 0.4112775 0.8266233 0.2224894 0.7891937 0.1342445 0.7527577 0.1342445 0.8399264 0.3204841 0.8532295 0.3294332 0.8399264 0.2876905 0.8399264 0.2876905 0.8532295 0.3294332 0.8653752 0.3113782 0.8850849 0.3113782 0.8789559 0.280054 0.8653752 0.3113782 0.8653752 0.3113782 0.8789559 0.280054 0.8532295 0.2627474 0.8653752 0.3113782 0.8532295 0.2627474 0.8399264 0.2876905 0.8399264 0.2876905 0.8532295 0.2627474 0.8266233 0.2224894 0.8399264 0.2876905 0.8266233 0.2224894 0.8266233 0.3324371 0.3782079 0.5654934 0.3815979 0.5482507 0.278374 0.1352376 0.8137668 0.150775 0.7891937 0.1342445 0.8206586 0.1859984 0.8206586 0.1859984 0.7891937 0.1342445 0.8266233 0.2224894 0.8206586 0.1859984 0.8266233 0.2224894 0.8620654 0.2330262 0.8266233 0.4667656 0.8266233 0.4493221 0.795125 0.4493221 0.795125 0.4493221 0.8266233 0.4493221 0.8014802 0.4112775 0.795125 0.4493221 0.8014802 0.4112775 0.795125 0.391236 0.2102302 0.3614768 0.2148128 0.3614768 0.2052893 0.3526172 0.2052893 0.3526172 0.2148128 0.3614768 0.2212816 0.3470469 0.2052893 0.3526172 0.2212816 0.3470469 0.2069065 0.3177576 0.2212816 0.391236 0.2102302 0.4222875 0.2375231 0.4082753 0.3659447 0.5702243 0.3804789 0.5931044 0.3863174 0.5893956 0.7722467 0.6157181 0.7654679 0.5969615 0.7654679 0.6181681 0.7654679 0.6181681 0.7654679 0.5969615 0.7527577 0.5969615 0.7654679 0.6181681 0.7527577 0.5969615 0.7527577 0.6181681 0.7722467 0.4300342 0.7840262 0.4300342 0.7654679 0.4112775 0.7654679 0.4112775 0.7840262 0.4300342 0.7840262 0.4112775 0.7654679 0.4112775 0.7840262 0.4112775 0.795125 0.391236 0.795125 0.391236 0.8014802 0.4112775 0.8266233 0.3324371 0.8266233 0.3324371 0.8014802 0.4112775 0.8318052 0.391236 0.8266233 0.3324371 0.8318052 0.391236 0.846578 0.3692762 0.7654679 0.5969615 0.7840262 0.5771778 0.7527577 0.5969615 0.7527577 0.5969615 0.7840262 0.5771778 0.795125 0.5571362 0.7527577 0.5969615 0.795125 0.5571362 0.7405818 0.5969615 0.7405818 0.5969615 0.795125 0.5571362 0.795125 0.5401044 0.2212816 0.391236 0.2375231 0.4082753 0.2212816 0.3470469 0.2212816 0.3470469 0.2375231 0.4082753 0.278374 0.1352376 0.2212816 0.3470469 0.278374 0.1352376 0.2069065 0.3177576 0.2069065 0.3177576 0.278374 0.1352376 0.2265557 0.1859984 0.2069065 0.3177576 0.2265557 0.1859984 0.1985933 0.280054 0.3540409 0.6260083 0.36974 0.6433025 0.3621492 0.5931044 0.7466697 0.7309356 0.7558522 0.7309356 0.74375 0.6951281 0.74375 0.6951281 0.7558522 0.7309356 0.775431 0.6829082 0.3863174 0.5893956 0.3782079 0.5654934 0.3659447 0.5702243 0.3659447 0.5702243 0.3782079 0.5654934 0.278374 0.1352376 0.3659447 0.5702243 0.278374 0.1352376 0.3621492 0.5931044 0.3621492 0.5931044 0.278374 0.1352376 0.3061999 0.5214737 0.3621492 0.5931044 0.3061999 0.5214737 0.3540409 0.6260083 0.3958392 0.5872976 0.4028949 0.5872976 0.3923581 0.5642772 0.3923581 0.5642772 0.4028949 0.5872976 0.4028949 0.5358121 0.3923581 0.5642772 0.4028949 0.5358121 0.3815979 0.5482507 0.795125 0.5401044 0.7654679 0.4580438 0.7405818 0.5969615 0.7405818 0.5969615 0.7654679 0.4580438 0.7115688 0.6127569 0.7405818 0.5969615 0.7115688 0.6127569 0.7405818 0.6209035 0.7405818 0.6209035 0.7115688 0.6127569 0.7115688 0.6333466 0.7405818 0.6209035 0.7115688 0.6333466 0.7654679 0.6457897 0.7654679 0.6457897 0.7115688 0.6333466 0.74375 0.6951281 0.7654679 0.6457897 0.74375 0.6951281 0.775431 0.6679728 0.775431 0.6679728 0.74375 0.6951281 0.775431 0.6829082 0.2487326 0.4539145 0.2588933 0.4539145 0.2375231 0.4082753 0.2375231 0.4082753 0.2588933 0.4539145 0.2721322 0.4255533 0.2375231 0.4082753 0.2721322 0.4255533 0.278374 0.1352376 0.278374 0.1352376 0.2721322 0.4255533 0.2879932 0.4397339 0.278374 0.1352376 0.2879932 0.4397339 0.3061999 0.5214737 0.3061999 0.5214737 0.2879932 0.4397339 0.2839011 0.4710218 0.3061999 0.5214737 0.2839011 0.4710218 0.2955317 0.5214737 0.2955317 0.5214737 0.2839011 0.4710218 0.2721322 0.5077347 0.2955317 0.5214737 0.2721322 0.5077347 0.2955317 0.5615549 0.5377628 0.7355206 0.5421721 0.7408586 0.5377628 0.6951281 0.5377628 0.6951281 0.5421721 0.7408586 0.554607 0.7137746 0.6308068 0.7611072 0.6424072 0.7550647 0.6227617 0.7530623 0.6227617 0.7530623 0.6424072 0.7550647 0.6436671 0.7427043 0.8266233 0.3324371 0.8266233 0.2224894 0.795125 0.391236 0.795125 0.391236 0.8266233 0.2224894 0.7527577 0.1342445 0.795125 0.391236 0.7527577 0.1342445 0.7654679 0.4112775 0.7654679 0.4112775 0.7527577 0.1342445 0.7115688 0.1177138 0.7654679 0.4112775 0.7115688 0.1177138 0.649207 0.7427043 0.3815979 0.5482507 0.4028949 0.5358121 0.278374 0.1352376 0.278374 0.1352376 0.4028949 0.5358121 0.408204 0.5185577 0.278374 0.1352376 0.408204 0.5185577 0.4127952 0.5234256 0.5168592 0.6675562 0.5230801 0.6540067 0.5021034 0.6607815 0.5021034 0.6607815 0.5230801 0.6540067 0.5106383 0.6344208 0.5158581 0.6230518 0.4781362 0.583122 0.5106383 0.6344208 0.5106383 0.6344208 0.4781362 0.583122 0.4781362 0.6230518 0.5106383 0.6344208 0.4781362 0.6230518 0.5021034 0.6607815 0.554607 0.7611072 0.554607 0.7963346 0.5732003 0.7206099 0.5732003 0.7206099 0.554607 0.7963346 0.5592353 0.8269411 0.554607 0.7137746 0.5639037 0.707869 0.5377628 0.6951281 0.5377628 0.6951281 0.5639037 0.707869 0.5639037 0.6951281 0.5377628 0.6951281 0.5639037 0.6951281 0.5303021 0.6457897 0.5303021 0.6457897 0.5639037 0.6951281 0.5732003 0.6951281 0.5303021 0.6457897 0.5732003 0.6951281 0.486691 0.1537993 0.6659609 0.8073477 0.6787284 0.8073477 0.6659609 0.7674251 0.6659609 0.7674251 0.6787284 0.8073477 0.6845853 0.7498881 0.6659609 0.7674251 0.6845853 0.7498881 0.649207 0.7427043 0.4416405 0.6782504 0.4416405 0.6991896 0.4560167 0.6991896 0.4165077 0.5289929 0.4192368 0.5351027 0.4657953 0.583122 0.4657953 0.583122 0.4192368 0.5351027 0.4209056 0.5415828 0.6113532 0.8950529 0.6184667 0.9095634 0.6308068 0.9095634 0.7012739 0.6230518 0.7115688 0.6127569 0.7012739 0.6089324 0.7012739 0.6089324 0.7115688 0.6127569 0.7654679 0.4112775 0.7012739 0.6089324 0.7654679 0.4112775 0.6787284 0.6642374 0.6787284 0.6642374 0.7654679 0.4112775 0.649207 0.7427043 0.6787284 0.6642374 0.649207 0.7427043 0.6787284 0.7130318 0.6787284 0.7130318 0.649207 0.7427043 0.6845853 0.7498881 0.6787284 0.7130318 0.6845853 0.7498881 0.6904424 0.7355206 0.4127952 0.5234256 0.4165077 0.5289929 0.278374 0.1352376 0.278374 0.1352376 0.4165077 0.5289929 0.4657953 0.583122 0.278374 0.1352376 0.4657953 0.583122 0.376536 0.1352376 0.376536 0.1352376 0.4657953 0.583122 0.4781362 0.583122 0.376536 0.1352376 0.4781362 0.583122 0.486691 0.1537993 0.486691 0.1537993 0.4781362 0.583122 0.5158581 0.6230518 0.486691 0.1537993 0.5158581 0.6230518 0.5303021 0.6457897 0.612971 0.82077 0.612971 0.7770792 0.5637995 0.8372897 0.7115688 0.1177138 0.6505326 0.150775 0.649207 0.7427043 0.649207 0.7427043 0.6505326 0.150775 0.5637995 0.1249896 0.649207 0.7427043 0.5637995 0.1249896 0.6436671 0.7427043 0.6436671 0.7427043 0.5637995 0.1249896 0.486691 0.1537993 0.6436671 0.7427043 0.486691 0.1537993 0.6227617 0.7530623 0.6227617 0.7530623 0.486691 0.1537993 0.5732003 0.6951281 0.6227617 0.7530623 0.5732003 0.6951281 0.612971 0.7770792 0.612971 0.7770792 0.5732003 0.6951281 0.5732003 0.7206099 0.612971 0.7770792 0.5732003 0.7206099 0.5637995 0.8372897 0.5637995 0.8372897 0.5732003 0.7206099 0.5592353 0.8269411 0.5637995 0.8372897 0.5592353 0.8269411 0.5546709 0.8430885 0.5546709 0.8430885 0.5592353 0.8269411 0.5499789 0.8328211 0.5546709 0.8430885 0.5499789 0.8328211 0.5499789 0.8430885 0.4560167 0.6991896 0.4719657 0.6829082 0.4416405 0.6782504 0.4416405 0.6782504 0.4719657 0.6829082 0.4719657 0.6635532 0.4416405 0.6782504 0.4719657 0.6635532 0.4245077 0.6433025 0.4245077 0.6433025 0.4719657 0.6635532 0.4462379 0.6230518 0.4245077 0.6433025 0.4462379 0.6230518 0.4184265 0.6030868 0.4184265 0.6030868 0.4462379 0.6230518 0.4462379 0.6030868 0.4184265 0.6030868 0.4462379 0.6030868 0.4214671 0.5730463 0.4214671 0.5730463 0.4462379 0.6030868 0.4657953 0.583122 0.4214671 0.5730463 0.4657953 0.583122 0.4214671 0.5482507 0.4214671 0.5482507 0.4657953 0.583122 0.4209056 0.5415828 0.6308068 0.9095634 0.6353306 0.9013036 0.6113532 0.8950529 0.6113532 0.8950529 0.6353306 0.9013036 0.6184667 0.8847839 0.6113532 0.8950529 0.6184667 0.8847839 0.5826011 0.8668875 0.5826011 0.8668875 0.6184667 0.8847839 0.60092 0.8489912 0.5826011 0.8668875 0.60092 0.8489912 0.5637995 0.8372897 0.5637995 0.8372897 0.60092 0.8489912 0.60092 0.8328211 0.5637995 0.8372897 0.60092 0.8328211 0.612971 0.82077</float_array>
          <technique_common>
            <accessor source="#火焰-mesh-map-0-array" count="1764" stride="2">
              <param name="S" type="float"/>
              <param name="T" type="float"/>
            </accessor>
          </technique_common>
        </source>
        <vertices id="火焰-mesh-vertices">
          <input semantic="POSITION" source="#火焰-mesh-positions"/>
        </vertices>
        <triangles material="材质-material" count="588">
          <input semantic="VERTEX" source="#火焰-mesh-vertices" offset="0"/>
          <input semantic="NORMAL" source="#火焰-mesh-normals" offset="1"/>
          <input semantic="TEXCOORD" source="#火焰-mesh-map-0" offset="2" set="0"/>
          <p>0 0 0 1 0 1 2 0 2 2 1 3 1 1 4 3 1 5 4 2 6 0 2 7 5 2 8 5 3 9 0 3 10 6 3 11 7 4 12 4 4 13 8 4 14 8 5 15 4 5 16 5 5 17 9 6 18 7 6 19 10 6 20 10 7 21 7 7 22 8 7 23 11 8 24 9 8 25 12 8 26 12 9 27 9 9 28 10 9 29 13 10 30 11 10 31 14 10 32 14 11 33 11 11 34 12 11 35 15 12 36 13 12 37 16 12 38 16 13 39 13 13 40 14 13 41 17 14 42 15 14 43 18 14 44 18 15 45 15 15 46 16 15 47 19 16 48 17 16 49 20 16 50 20 17 51 17 17 52 18 17 53 21 18 54 19 18 55 22 18 56 22 19 57 19 19 58 23 19 59 24 20 60 21 20 61 25 20 62 25 21 63 21 21 64 26 21 65 27 22 66 24 22 67 28 22 68 28 23 69 24 23 70 25 23 71 29 24 72 27 24 73 30 24 74 30 25 75 27 25 76 28 25 77 31 26 78 29 26 79 32 26 80 32 27 81 29 27 82 33 27 83 34 28 84 31 28 85 35 28 86 35 29 87 31 29 88 36 29 89 37 30 90 34 30 91 38 30 92 38 31 93 34 31 94 35 31 95 39 32 96 37 32 97 40 32 98 40 33 99 37 33 100 38 33 101 41 34 102 39 34 103 42 34 104 42 35 105 39 35 106 43 35 107 44 36 108 41 36 109 45 36 110 45 37 111 41 37 112 46 37 113 47 38 114 44 38 115 48 38 116 48 39 117 44 39 118 45 39 119 49 40 120 47 40 121 50 40 122 50 41 123 47 41 124 51 41 125 52 42 126 49 42 127 53 42 128 53 43 129 49 43 130 54 43 131 55 44 132 52 44 133 56 44 134 56 45 135 52 45 136 53 45 137 57 46 138 55 46 139 58 46 140 58 47 141 55 47 142 56 47 143 59 48 144 57 48 145 60 48 146 60 49 147 57 49 148 58 49 149 61 50 150 59 50 151 62 50 152 62 51 153 59 51 154 63 51 155 64 52 156 61 52 157 65 52 158 65 53 159 61 53 160 66 53 161 67 54 162 64 54 163 68 54 164 68 55 165 64 55 166 65 55 167 69 56 168 67 56 169 70 56 170 70 57 171 67 57 172 68 57 173 71 58 174 69 58 175 72 58 176 72 59 177 69 59 178 70 59 179 73 60 180 71 60 181 74 60 182 74 61 183 71 61 184 72 61 185 75 62 186 73 62 187 76 62 188 76 63 189 73 63 190 74 63 191 77 64 192 75 64 193 78 64 194 78 65 195 75 65 196 76 65 197 79 66 198 77 66 199 80 66 200 80 67 201 77 67 202 78 67 203 81 68 204 79 68 205 82 68 206 82 69 207 79 69 208 83 69 209 84 70 210 81 70 211 85 70 212 85 71 213 81 71 214 86 71 215 87 72 216 84 72 217 88 72 218 88 73 219 84 73 220 89 73 221 90 74 222 87 74 223 91 74 224 91 75 225 87 75 226 92 75 227 93 76 228 90 76 229 94 76 230 94 77 231 90 77 232 95 77 233 96 78 234 93 78 235 97 78 236 97 79 237 93 79 238 98 79 239 99 80 240 96 80 241 100 80 242 100 81 243 96 81 244 97 81 245 101 82 246 99 82 247 102 82 248 102 83 249 99 83 250 100 83 251 103 84 252 101 84 253 104 84 254 104 85 255 101 85 256 102 85 257 105 86 258 103 86 259 106 86 260 106 87 261 103 87 262 104 87 263 107 88 264 105 88 265 108 88 266 108 89 267 105 89 268 106 89 269 109 90 270 107 90 271 110 90 272 110 91 273 107 91 274 108 91 275 111 92 276 109 92 277 112 92 278 112 93 279 109 93 280 110 93 281 113 94 282 111 94 283 114 94 284 114 95 285 111 95 286 112 95 287 115 96 288 113 96 289 116 96 290 116 97 291 113 97 292 114 97 293 117 98 294 115 98 295 118 98 296 118 99 297 115 99 298 116 99 299 119 100 300 117 100 301 120 100 302 120 101 303 117 101 304 118 101 305 121 102 306 119 102 307 122 102 308 122 103 309 119 103 310 123 103 311 124 104 312 121 104 313 125 104 314 125 105 315 121 105 316 126 105 317 127 106 318 124 106 319 128 106 320 128 107 321 124 107 322 125 107 323 129 108 324 127 108 325 130 108 326 130 109 327 127 109 328 128 109 329 131 110 330 129 110 331 132 110 332 132 111 333 129 111 334 130 111 335 133 112 336 131 112 337 134 112 338 134 113 339 131 113 340 132 113 341 135 114 342 133 114 343 136 114 344 136 115 345 133 115 346 134 115 347 137 116 348 135 116 349 138 116 350 138 117 351 135 117 352 139 117 353 140 118 354 137 118 355 141 118 356 141 119 357 137 119 358 142 119 359 143 120 360 140 120 361 144 120 362 144 121 363 140 121 364 141 121 365 145 122 366 143 122 367 146 122 368 146 123 369 143 123 370 144 123 371 147 124 372 145 124 373 148 124 374 148 125 375 145 125 376 146 125 377 149 126 378 147 126 379 150 126 380 150 127 381 147 127 382 151 127 383 152 128 384 149 128 385 153 128 386 153 129 387 149 129 388 154 129 389 155 130 390 152 130 391 156 130 392 156 131 393 152 131 394 153 131 395 157 132 396 155 132 397 158 132 398 158 133 399 155 133 400 156 133 401 159 134 402 157 134 403 160 134 404 160 135 405 157 135 406 158 135 407 161 136 408 159 136 409 162 136 410 162 137 411 159 137 412 160 137 413 163 138 414 161 138 415 164 138 416 164 139 417 161 139 418 162 139 419 165 140 420 163 140 421 166 140 422 166 141 423 163 141 424 164 141 425 167 142 426 165 142 427 168 142 428 168 143 429 165 143 430 166 143 431 169 144 432 167 144 433 170 144 434 170 145 435 167 145 436 171 145 437 172 146 438 169 146 439 173 146 440 173 147 441 169 147 442 174 147 443 175 148 444 172 148 445 176 148 446 176 149 447 172 149 448 173 149 449 177 150 450 175 150 451 178 150 452 178 151 453 175 151 454 176 151 455 179 152 456 177 152 457 180 152 458 180 153 459 177 153 460 178 153 461 181 154 462 179 154 463 182 154 464 182 155 465 179 155 466 180 155 467 183 156 468 181 156 469 184 156 470 184 157 471 181 157 472 182 157 473 185 158 474 183 158 475 186 158 476 186 159 477 183 159 478 187 159 479 188 160 480 185 160 481 189 160 482 189 161 483 185 161 484 190 161 485 191 162 486 188 162 487 192 162 488 192 163 489 188 163 490 189 163 491 193 164 492 191 164 493 194 164 494 194 165 495 191 165 496 192 165 497 195 166 498 193 166 499 196 166 500 196 167 501 193 167 502 197 167 503 198 168 504 195 168 505 199 168 506 199 169 507 195 169 508 200 169 509 201 170 510 198 170 511 202 170 512 202 171 513 198 171 514 199 171 515 203 172 516 201 172 517 204 172 518 204 173 519 201 173 520 202 173 521 205 174 522 203 174 523 206 174 524 206 175 525 203 175 526 204 175 527 207 176 528 205 176 529 208 176 530 208 177 531 205 177 532 206 177 533 209 178 534 207 178 535 210 178 536 210 179 537 207 179 538 208 179 539 211 180 540 209 180 541 212 180 542 212 181 543 209 181 544 210 181 545 213 182 546 211 182 547 214 182 548 214 183 549 211 183 550 215 183 551 216 184 552 213 184 553 217 184 554 217 185 555 213 185 556 218 185 557 219 186 558 216 186 559 220 186 560 220 187 561 216 187 562 221 187 563 222 188 564 219 188 565 223 188 566 223 189 567 219 189 568 224 189 569 225 190 570 222 190 571 226 190 572 226 191 573 222 191 574 223 191 575 227 192 576 225 192 577 228 192 578 228 193 579 225 193 580 226 193 581 229 194 582 227 194 583 230 194 584 230 195 585 227 195 586 228 195 587 231 196 588 229 196 589 232 196 590 232 197 591 229 197 592 233 197 593 234 198 594 231 198 595 235 198 596 235 199 597 231 199 598 236 199 599 237 200 600 234 200 601 238 200 602 238 201 603 234 201 604 235 201 605 239 202 606 237 202 607 240 202 608 240 203 609 237 203 610 238 203 611 241 204 612 239 204 613 242 204 614 242 205 615 239 205 616 240 205 617 243 206 618 241 206 619 244 206 620 244 207 621 241 207 622 242 207 623 245 208 624 243 208 625 246 208 626 246 209 627 243 209 628 244 209 629 247 210 630 245 210 631 248 210 632 248 211 633 245 211 634 246 211 635 249 212 636 247 212 637 250 212 638 250 213 639 247 213 640 251 213 641 252 214 642 249 214 643 253 214 644 253 215 645 249 215 646 254 215 647 255 216 648 252 216 649 256 216 650 256 217 651 252 217 652 253 217 653 257 218 654 255 218 655 258 218 656 258 219 657 255 219 658 256 219 659 259 220 660 257 220 661 260 220 662 260 221 663 257 221 664 261 221 665 262 222 666 259 222 667 263 222 668 263 223 669 259 223 670 260 223 671 264 224 672 262 224 673 265 224 674 265 225 675 262 225 676 266 225 677 264 226 678 265 226 679 267 226 680 267 227 681 265 227 682 268 227 683 267 228 684 268 228 685 269 228 686 269 229 687 268 229 688 270 229 689 269 230 690 270 230 691 271 230 692 271 231 693 270 231 694 272 231 695 271 232 696 272 232 697 273 232 698 273 233 699 272 233 700 274 233 701 273 234 702 274 234 703 275 234 704 275 235 705 274 235 706 276 235 707 277 236 708 275 236 709 278 236 710 278 237 711 275 237 712 279 237 713 280 238 714 277 238 715 281 238 716 281 239 717 277 239 718 282 239 719 283 240 720 280 240 721 284 240 722 284 241 723 280 241 724 281 241 725 285 242 726 283 242 727 286 242 728 286 243 729 283 243 730 287 243 731 288 244 732 285 244 733 289 244 734 289 245 735 285 245 736 286 245 737 290 246 738 288 246 739 291 246 740 291 247 741 288 247 742 289 247 743 292 248 744 290 248 745 293 248 746 293 249 747 290 249 748 291 249 749 294 250 750 292 250 751 295 250 752 295 251 753 292 251 754 296 251 755 297 252 756 294 252 757 298 252 758 298 253 759 294 253 760 295 253 761 299 254 762 297 254 763 300 254 764 300 255 765 297 255 766 301 255 767 302 256 768 299 256 769 303 256 770 303 257 771 299 257 772 300 257 773 304 258 774 302 258 775 305 258 776 305 259 777 302 259 778 306 259 779 307 260 780 304 260 781 308 260 782 308 261 783 304 261 784 309 261 785 310 262 786 307 262 787 311 262 788 311 263 789 307 263 790 312 263 791 313 264 792 310 264 793 314 264 794 314 265 795 310 265 796 311 265 797 315 266 798 313 266 799 316 266 800 316 267 801 313 267 802 317 267 803 318 268 804 315 268 805 319 268 806 319 269 807 315 269 808 320 269 809 321 270 810 318 270 811 322 270 812 322 271 813 318 271 814 319 271 815 323 272 816 321 272 817 324 272 818 324 273 819 321 273 820 322 273 821 325 274 822 323 274 823 326 274 824 326 275 825 323 275 826 324 275 827 327 276 828 325 276 829 328 276 830 328 277 831 325 277 832 326 277 833 329 278 834 327 278 835 330 278 836 330 279 837 327 279 838 328 279 839 331 280 840 329 280 841 332 280 842 332 281 843 329 281 844 330 281 845 333 282 846 331 282 847 334 282 848 334 283 849 331 283 850 335 283 851 336 284 852 333 284 853 337 284 854 337 285 855 333 285 856 338 285 857 339 286 858 336 286 859 340 286 860 340 287 861 336 287 862 341 287 863 342 288 864 339 288 865 343 288 866 343 289 867 339 289 868 344 289 869 345 290 870 342 290 871 346 290 872 346 291 873 342 291 874 347 291 875 348 292 876 345 292 877 349 292 878 349 293 879 345 293 880 350 293 881 1 294 882 348 294 883 3 294 884 3 295 885 348 295 886 351 295 887 47 296 888 49 296 889 52 296 890 61 297 891 64 297 892 73 297 893 29 298 894 31 298 895 34 298 896 41 299 897 44 299 898 39 299 899 39 300 900 44 300 901 47 300 902 39 301 903 47 301 904 55 301 905 55 302 906 47 302 907 52 302 908 101 303 909 103 303 910 105 303 911 127 304 912 129 304 913 131 304 914 57 305 915 34 305 916 55 305 917 55 306 918 34 306 919 37 306 920 55 307 921 37 307 922 39 307 923 67 308 924 69 308 925 64 308 926 64 309 927 69 309 928 71 309 929 64 310 930 71 310 931 73 310 932 310 311 933 313 311 934 315 311 935 77 312 936 79 312 937 75 312 938 75 313 939 79 313 940 81 313 941 75 314 942 81 314 943 73 314 944 209 315 945 211 315 946 213 315 947 339 316 948 342 316 949 336 316 950 336 317 951 342 317 952 345 317 953 4 318 954 7 318 955 0 318 956 0 319 957 7 319 958 348 319 959 0 320 960 348 320 961 1 320 962 27 321 963 29 321 964 24 321 965 24 322 966 29 322 967 34 322 968 24 323 969 34 323 970 21 323 971 99 324 972 101 324 973 96 324 974 96 325 975 101 325 976 105 325 977 96 326 978 105 326 979 93 326 980 93 327 981 105 327 982 90 327 983 90 328 984 105 328 985 87 328 986 87 329 987 105 329 988 107 329 989 87 330 990 107 330 991 84 330 992 292 331 993 294 331 994 290 331 995 290 332 996 294 332 997 297 332 998 290 333 999 297 333 1000 288 333 1001 19 334 1002 21 334 1003 81 334 1004 81 335 1005 21 335 1006 34 335 1007 81 336 1008 34 336 1009 73 336 1010 73 337 1011 34 337 1012 57 337 1013 73 338 1014 57 338 1015 61 338 1016 61 339 1017 57 339 1018 59 339 1019 117 340 1020 119 340 1021 115 340 1022 115 341 1023 119 341 1024 121 341 1025 195 342 1026 198 342 1027 201 342 1028 331 343 1029 333 343 1030 329 343 1031 329 344 1032 333 344 1033 336 344 1034 329 345 1035 336 345 1036 7 345 1037 7 346 1038 336 346 1039 345 346 1040 7 347 1041 345 347 1042 348 347 1043 113 348 1044 115 348 1045 111 348 1046 111 349 1047 115 349 1048 121 349 1049 111 350 1050 121 350 1051 109 350 1052 109 351 1053 121 351 1054 124 351 1055 109 352 1056 124 352 1057 107 352 1058 107 353 1059 124 353 1060 127 353 1061 107 354 1062 127 354 1063 84 354 1064 84 355 1065 127 355 1066 131 355 1067 84 356 1068 131 356 1069 81 356 1070 280 357 1071 283 357 1072 277 357 1073 277 358 1074 283 358 1075 285 358 1076 277 359 1077 285 359 1078 288 359 1079 310 360 1080 315 360 1081 307 360 1082 140 361 1083 143 361 1084 145 361 1085 155 362 1086 157 362 1087 152 362 1088 152 363 1089 157 363 1090 159 363 1091 152 364 1092 159 364 1093 11 364 1094 234 365 1095 237 365 1096 225 365 1097 225 366 1098 237 366 1099 222 366 1100 273 367 1101 275 367 1102 7 367 1103 302 368 1104 304 368 1105 299 368 1106 299 369 1107 304 369 1108 307 369 1109 299 370 1110 307 370 1111 297 370 1112 297 371 1113 307 371 1114 7 371 1115 297 372 1116 7 372 1117 288 372 1118 288 373 1119 7 373 1120 275 373 1121 288 374 1122 275 374 1123 277 374 1124 315 375 1125 318 375 1126 307 375 1127 307 376 1128 318 376 1129 321 376 1130 307 377 1131 321 377 1132 7 377 1133 7 378 1134 321 378 1135 323 378 1136 7 379 1137 323 379 1138 329 379 1139 329 380 1140 323 380 1141 325 380 1142 329 381 1143 325 381 1144 327 381 1145 149 382 1146 133 382 1147 135 382 1148 161 383 1149 163 383 1150 165 383 1151 188 384 1152 191 384 1153 185 384 1154 185 385 1155 191 385 1156 193 385 1157 213 386 1158 216 386 1159 209 386 1160 209 387 1161 216 387 1162 205 387 1163 209 388 1164 205 388 1165 207 388 1166 227 389 1167 229 389 1168 225 389 1169 225 390 1170 229 390 1171 231 390 1172 225 391 1173 231 391 1174 234 391 1175 11 392 1176 13 392 1177 15 392 1178 195 393 1179 201 393 1180 193 393 1181 193 394 1182 201 394 1183 183 394 1184 193 395 1185 183 395 1186 185 395 1187 135 396 1188 137 396 1189 149 396 1190 149 397 1191 137 397 1192 140 397 1193 149 398 1194 140 398 1195 147 398 1196 147 399 1197 140 399 1198 145 399 1199 149 400 1200 152 400 1201 133 400 1202 133 401 1203 152 401 1204 11 401 1205 133 402 1206 11 402 1207 131 402 1208 131 403 1209 11 403 1210 15 403 1211 131 404 1212 15 404 1213 81 404 1214 81 405 1215 15 405 1216 17 405 1217 81 406 1218 17 406 1219 19 406 1220 264 407 1221 267 407 1222 239 407 1223 239 408 1224 267 408 1225 269 408 1226 239 409 1227 269 409 1228 271 409 1229 216 410 1230 219 410 1231 205 410 1232 205 411 1233 219 411 1234 11 411 1235 205 412 1236 11 412 1237 203 412 1238 203 413 1239 11 413 1240 159 413 1241 203 414 1242 159 414 1243 201 414 1244 201 415 1245 159 415 1246 161 415 1247 201 416 1248 161 416 1249 183 416 1250 175 417 1251 177 417 1252 179 417 1253 161 418 1254 165 418 1255 183 418 1256 183 419 1257 165 419 1258 167 419 1259 183 420 1260 167 420 1261 181 420 1262 181 421 1263 167 421 1264 169 421 1265 181 422 1266 169 422 1267 179 422 1268 179 423 1269 169 423 1270 172 423 1271 179 424 1272 172 424 1273 175 424 1274 219 425 1275 222 425 1276 11 425 1277 11 426 1278 222 426 1279 237 426 1280 11 427 1281 237 427 1282 9 427 1283 9 428 1284 237 428 1285 239 428 1286 9 429 1287 239 429 1288 7 429 1289 7 430 1290 239 430 1291 271 430 1292 7 431 1293 271 431 1294 273 431 1295 249 432 1296 252 432 1297 247 432 1298 247 433 1299 252 433 1300 255 433 1301 247 434 1302 255 434 1303 245 434 1304 245 435 1305 255 435 1306 243 435 1307 243 436 1308 255 436 1309 257 436 1310 243 437 1311 257 437 1312 241 437 1313 241 438 1314 257 438 1315 259 438 1316 241 439 1317 259 439 1318 239 439 1319 239 440 1320 259 440 1321 262 440 1322 239 441 1323 262 441 1324 264 441 1325 48 442 1326 45 442 1327 46 442 1328 26 443 1329 20 443 1330 18 443 1331 6 444 1332 352 444 1333 349 444 1334 128 445 1335 85 445 1336 86 445 1337 35 446 1338 25 446 1339 26 446 1340 53 447 1341 54 447 1342 56 447 1343 56 448 1344 54 448 1345 48 448 1346 46 449 1347 40 449 1348 48 449 1349 48 450 1350 40 450 1351 38 450 1352 48 451 1353 38 451 1354 56 451 1355 56 452 1356 38 452 1357 35 452 1358 56 453 1359 35 453 1360 58 453 1361 353 454 1362 354 454 1363 8 454 1364 28 455 1365 25 455 1366 30 455 1367 30 456 1368 25 456 1369 35 456 1370 30 457 1371 35 457 1372 36 457 1373 70 458 1374 68 458 1375 72 458 1376 72 459 1377 68 459 1378 65 459 1379 72 460 1380 65 460 1381 74 460 1382 343 461 1383 344 461 1384 350 461 1385 350 462 1386 344 462 1387 337 462 1388 350 463 1389 337 463 1390 349 463 1391 338 464 1392 332 464 1393 330 464 1394 298 465 1395 295 465 1396 296 465 1397 100 466 1398 97 466 1399 102 466 1400 102 467 1401 97 467 1402 106 467 1403 102 468 1404 106 468 1405 104 468 1406 80 469 1407 78 469 1408 86 469 1409 86 470 1410 78 470 1411 76 470 1412 86 471 1413 76 471 1414 74 471 1415 74 472 1416 65 472 1417 58 472 1418 58 473 1419 65 473 1420 66 473 1421 58 474 1422 66 474 1423 60 474 1424 97 475 1425 98 475 1426 106 475 1427 106 476 1428 98 476 1429 91 476 1430 106 477 1431 91 477 1432 108 477 1433 108 478 1434 91 478 1435 92 478 1436 338 479 1437 330 479 1438 337 479 1439 337 480 1440 330 480 1441 8 480 1442 337 481 1443 8 481 1444 349 481 1445 349 482 1446 8 482 1447 5 482 1448 349 483 1449 5 483 1450 6 483 1451 305 484 1452 306 484 1453 355 484 1454 120 485 1455 118 485 1456 126 485 1457 126 486 1458 118 486 1459 116 486 1460 296 487 1461 353 487 1462 298 487 1463 298 488 1464 353 488 1465 8 488 1466 298 489 1467 8 489 1468 355 489 1469 355 490 1470 8 490 1471 312 490 1472 355 491 1473 312 491 1474 305 491 1475 284 492 1476 281 492 1477 356 492 1478 356 493 1479 281 493 1480 282 493 1481 356 494 1482 282 494 1483 354 494 1484 92 495 1485 85 495 1486 108 495 1487 108 496 1488 85 496 1489 128 496 1490 108 497 1491 128 497 1492 110 497 1493 110 498 1494 128 498 1495 125 498 1496 110 499 1497 125 499 1498 112 499 1499 112 500 1500 125 500 1501 126 500 1502 112 501 1503 126 501 1504 114 501 1505 114 502 1506 126 502 1507 116 502 1508 328 503 1509 326 503 1510 330 503 1511 330 504 1512 326 504 1513 324 504 1514 330 505 1515 324 505 1516 8 505 1517 8 506 1518 324 506 1519 322 506 1520 8 507 1521 322 507 1522 312 507 1523 312 508 1524 322 508 1525 319 508 1526 312 509 1527 319 509 1528 311 509 1529 311 510 1530 319 510 1531 320 510 1532 311 511 1533 320 511 1534 314 511 1535 218 512 1536 212 512 1537 217 512 1538 217 513 1539 212 513 1540 210 513 1541 158 514 1542 156 514 1543 160 514 1544 160 515 1545 156 515 1546 153 515 1547 58 516 1548 35 516 1549 74 516 1550 74 517 1551 35 517 1552 26 517 1553 74 518 1554 26 518 1555 86 518 1556 86 519 1557 26 519 1558 18 519 1559 86 520 1560 18 520 1561 154 520 1562 354 521 1563 282 521 1564 8 521 1565 8 522 1566 282 522 1567 276 522 1568 8 523 1569 276 523 1570 274 523 1571 230 524 1572 228 524 1573 236 524 1574 236 525 1575 228 525 1576 226 525 1577 223 526 1578 238 526 1579 226 526 1580 226 527 1581 238 527 1582 235 527 1583 226 528 1584 235 528 1585 236 528 1586 199 529 1587 200 529 1588 202 529 1589 202 530 1590 200 530 1591 194 530 1592 210 531 1593 208 531 1594 217 531 1595 217 532 1596 208 532 1597 206 532 1598 217 533 1599 206 533 1600 224 533 1601 224 534 1602 206 534 1603 204 534 1604 224 535 1605 204 535 1606 12 535 1607 146 536 1608 144 536 1609 148 536 1610 148 537 1611 144 537 1612 141 537 1613 148 538 1614 141 538 1615 154 538 1616 256 539 1617 253 539 1618 254 539 1619 272 540 1620 270 540 1621 240 540 1622 240 541 1623 270 541 1624 268 541 1625 180 542 1626 178 542 1627 176 542 1628 130 543 1629 128 543 1630 132 543 1631 132 544 1632 128 544 1633 86 544 1634 132 545 1635 86 545 1636 134 545 1637 134 546 1638 86 546 1639 154 546 1640 134 547 1641 154 547 1642 136 547 1643 136 548 1644 154 548 1645 141 548 1646 136 549 1647 141 549 1648 142 549 1649 274 550 1650 272 550 1651 8 550 1652 8 551 1653 272 551 1654 240 551 1655 8 552 1656 240 552 1657 10 552 1658 10 553 1659 240 553 1660 238 553 1661 10 554 1662 238 554 1663 12 554 1664 12 555 1665 238 555 1666 223 555 1667 12 556 1668 223 556 1669 224 556 1670 164 557 1671 162 557 1672 184 557 1673 18 558 1674 16 558 1675 154 558 1676 154 559 1677 16 559 1678 14 559 1679 154 560 1680 14 560 1681 153 560 1682 153 561 1683 14 561 1684 12 561 1685 153 562 1686 12 562 1687 160 562 1688 160 563 1689 12 563 1690 204 563 1691 160 564 1692 204 564 1693 162 564 1694 162 565 1695 204 565 1696 202 565 1697 162 566 1698 202 566 1699 184 566 1700 184 567 1701 202 567 1702 194 567 1703 184 568 1704 194 568 1705 190 568 1706 190 569 1707 194 569 1708 192 569 1709 190 570 1710 192 570 1711 189 570 1712 254 571 1713 248 571 1714 256 571 1715 256 572 1716 248 572 1717 246 572 1718 256 573 1719 246 573 1720 258 573 1721 258 574 1722 246 574 1723 244 574 1724 258 575 1725 244 575 1726 357 575 1727 357 576 1728 244 576 1729 242 576 1730 357 577 1731 242 577 1732 266 577 1733 266 578 1734 242 578 1735 240 578 1736 266 579 1737 240 579 1738 265 579 1739 265 580 1740 240 580 1741 268 580 1742 176 581 1743 173 581 1744 180 581 1745 180 582 1746 173 582 1747 174 582 1748 180 583 1749 174 583 1750 182 583 1751 182 584 1752 174 584 1753 168 584 1754 182 585 1755 168 585 1756 184 585 1757 184 586 1758 168 586 1759 166 586 1760 184 587 1761 166 587 1762 164 587 1763</p>
        </triangles>
      </mesh>
    </geometry>
  </library_geometries>
  <library_visual_scenes>
    <visual_scene id="Scene" name="Scene">
      <node id="火焰" name="火焰" type="NODE">
        <matrix sid="transform">1 0 0 0 0 1 0 0 0 0 1 0 0 0 0 1</matrix>
        <instance_geometry url="#火焰-mesh" name="火焰">
          <bind_material>
            <technique_common>
              <instance_material symbol="材质-material" target="#材质-material">
                <bind_vertex_input semantic="UV贴图" input_semantic="TEXCOORD" input_set="0"/>
              </instance_material>
            </technique_common>
          </bind_material>
        </instance_geometry>
      </node>
      <node id="Camera" name="Camera" type="NODE">
        <matrix sid="transform">0.6859207 -0.3240135 0.6515582 7.358891 0.7276763 0.3054208 -0.6141704 -6.925791 0 0.8953956 0.4452714 4.958309 0 0 0 1</matrix>
        <instance_camera url="#Camera-camera"/>
      </node>
      <node id="Light" name="Light" type="NODE">
        <matrix sid="transform">-0.2908646 -0.7711008 0.5663932 4.076245 0.9551712 -0.1998834 0.2183912 1.005454 -0.05518906 0.6045247 0.7946723 5.903862 0 0 0 1</matrix>
        <instance_light url="#Light-light"/>
      </node>
    </visual_scene>
  </library_visual_scenes>
  <scene>
    <instance_visual_scene url="#Scene"/>
  </scene>
</COLLADA>